<?xml version="1.0" standalone="no"?>
<!DOCTYPE svg PUBLIC "-//W3C//DTD SVG 20010904//EN"
 "http://www.w3.org/TR/2001/REC-SVG-20010904/DTD/svg10.dtd">
<svg version="1.0" xmlns="http://www.w3.org/2000/svg"
 width="622.000000pt" height="622.000000pt" viewBox="0 0 622.000000 622.000000"
 preserveAspectRatio="xMidYMid meet">
<metadata>
Created by potrace 1.14, written by Peter Selinger 2001-2017
</metadata>
<g transform="translate(0.000000,622.000000) scale(0.100000,-0.100000)"
fill="#000000" stroke="none">
<path d="M3157 6068 c-137 -355 -266 -749 -416 -1273 -55 -192 -138 -489 -146
-525 -2 -8 -16 -58 -30 -110 -15 -52 -33 -120 -41 -150 -8 -30 -22 -78 -30
-106 -8 -28 -16 -60 -19 -70 -8 -40 -181 -660 -216 -774 -11 -36 -24 -78 -28
-95 -161 -542 -347 -1070 -486 -1380 -14 -33 -33 -76 -42 -95 -26 -59 -183
-371 -210 -419 -71 -123 -205 -337 -236 -376 -4 -5 -33 -44 -63 -85 -147 -197
-308 -365 -494 -514 -119 -96 -120 -101 -5 -21 322 225 1030 587 1495 765 47
18 99 38 115 45 110 47 602 195 735 222 14 3 30 6 35 7 30 7 123 26 145 30 14
2 36 7 50 10 14 3 44 7 67 10 22 3 52 8 65 10 12 3 43 8 68 11 25 2 77 8 115
12 39 5 176 8 305 7 257 0 353 -12 594 -69 139 -33 346 -126 491 -220 231
-149 444 -386 574 -638 30 -57 20 -17 -13 54 -18 41 -50 110 -69 154 -19 44
-46 105 -60 135 -13 30 -48 109 -77 175 -29 66 -63 143 -75 170 -33 74 -326
754 -375 870 -23 55 -48 115 -56 132 -41 91 -316 755 -448 1083 -48 118 -91
224 -96 235 -9 19 -243 614 -311 790 -17 44 -42 107 -55 140 -32 84 -263 709
-307 830 -113 315 -255 739 -347 1033 -22 72 -42 132 -44 132 -2 0 -29 -64
-59 -142z"/>
</g>
</svg>
