<svg width="96" height="64" viewBox="0 0 96 64" fill="none" xmlns="http://www.w3.org/2000/svg">
<path d="M41.4937 20.2274H54.4593V43.9537H41.4937V20.2274Z" fill="#BDBDBD"/>
<path d="M42.3167 32.091C42.3167 27.2703 44.5393 22.9945 47.9556 20.2277C45.4449 18.2156 42.2756 17 38.8181 17C30.6268 17 24 23.7489 24 32.091C24 40.4328 30.6268 47.1819 38.8179 47.1819C42.2754 47.1819 45.4447 45.9663 47.9556 43.954C44.5393 41.2293 42.3167 36.9116 42.3167 32.091Z" fill="#828282"/>
<path d="M71.9524 32.091C71.9524 40.4328 65.3256 47.1819 57.1345 47.1819C53.677 47.1819 50.5076 45.9663 47.9968 43.954C51.4543 41.1875 53.6359 36.9116 53.6359 32.091C53.6359 27.2703 51.4131 22.9945 47.9968 20.2277C50.5075 18.2156 53.677 17 57.1345 17C65.3256 17 71.9526 23.7909 71.9526 32.091H71.9524Z" fill="#E0E0E0"/>
<path opacity="0.05" d="M0 8C0 3.58172 3.58172 0 8 0H88C92.4183 0 96 3.58172 96 8V56C96 60.4183 92.4183 64 88 64H8C3.58172 64 0 60.4183 0 56V8Z" fill="black"/>
</svg>
