<svg xmlns="http://www.w3.org/2000/svg" xmlns:xlink="http://www.w3.org/1999/xlink" viewBox="0 0 5582.87 4610.05"><defs><style>.cls-1{isolation:isolate;}.cls-136,.cls-2,.cls-3{opacity:0.2;}.cls-2{fill:url(#linear-gradient);}.cls-4{opacity:0;}.cls-5{opacity:0.09;}.cls-6{opacity:0.18;}.cls-7{opacity:0.27;}.cls-8{opacity:0.36;}.cls-9{opacity:0.45;}.cls-10{opacity:0.55;}.cls-11{opacity:0.64;}.cls-12{opacity:0.73;}.cls-13{opacity:0.82;}.cls-14{opacity:0.91;}.cls-15{fill:url(#linear-gradient-2);}.cls-16{fill:url(#linear-gradient-3);}.cls-17,.cls-20,.cls-22,.cls-55,.cls-58{mix-blend-mode:multiply;}.cls-17{opacity:0.82;fill:url(#linear-gradient-4);}.cls-18,.cls-24,.cls-26,.cls-36,.cls-42,.cls-49,.cls-51,.cls-52,.cls-53{mix-blend-mode:screen;}.cls-18,.cls-26{opacity:0.6;}.cls-18{fill:url(#radial-gradient);}.cls-19{fill:url(#linear-gradient-5);}.cls-20{opacity:0.3;fill:url(#radial-gradient-2);}.cls-21,.cls-24{fill:#fc6600;}.cls-22{fill:#bcbec0;}.cls-138,.cls-140,.cls-23,.cls-34,.cls-39,.cls-40,.cls-41,.cls-81{mix-blend-mode:color-dodge;}.cls-23{fill:url(#linear-gradient-6);}.cls-25{fill:url(#linear-gradient-7);}.cls-26{fill:url(#radial-gradient-3);}.cls-27{fill:url(#linear-gradient-8);}.cls-28{fill:url(#linear-gradient-9);}.cls-29{fill:url(#linear-gradient-10);}.cls-30{opacity:0.09;}.cls-31{fill:#fff;}.cls-32{fill:url(#New_Gradient_Swatch_copy_9);}.cls-33{fill:url(#New_Gradient_Swatch_copy_17);}.cls-34{fill:url(#Radial_Gradient_1);}.cls-35{fill:#3d065f;}.cls-36,.cls-50{fill:#cfb1e3;}.cls-36,.cls-49{opacity:0.8;}.cls-37{fill:#9f19ab;}.cls-37,.cls-43,.cls-44{opacity:0.7;}.cls-38{fill:url(#New_Gradient_Swatch_copy_17-2);}.cls-39{fill:url(#radial-gradient-4);}.cls-40{fill:url(#radial-gradient-5);}.cls-41{fill:url(#radial-gradient-6);}.cls-43{fill:url(#linear-gradient-11);}.cls-44{fill:url(#linear-gradient-12);}.cls-45{fill:#25054d;}.cls-100,.cls-101,.cls-102,.cls-103,.cls-104,.cls-105,.cls-106,.cls-107,.cls-108,.cls-109,.cls-110,.cls-111,.cls-112,.cls-113,.cls-114,.cls-115,.cls-116,.cls-117,.cls-118,.cls-119,.cls-120,.cls-121,.cls-122,.cls-123,.cls-124,.cls-125,.cls-126,.cls-127,.cls-128,.cls-129,.cls-130,.cls-131,.cls-132,.cls-46,.cls-47,.cls-51,.cls-83,.cls-84,.cls-85,.cls-86,.cls-87,.cls-88,.cls-89,.cls-90,.cls-91,.cls-92,.cls-93,.cls-94,.cls-95,.cls-96,.cls-97,.cls-98,.cls-99{opacity:0.5;}.cls-47,.cls-48{fill:#ebdef3;}.cls-48,.cls-50{opacity:0.9;}.cls-51{fill:url(#linear-gradient-13);}.cls-52{fill:url(#linear-gradient-14);}.cls-53{fill:url(#linear-gradient-15);}.cls-54{fill:url(#New_Gradient_Swatch_copy_8);}.cls-55{fill:url(#linear-gradient-16);}.cls-56{fill:url(#New_Gradient_Swatch_copy_8-2);}.cls-57{fill:url(#New_Gradient_Swatch_copy_8-3);}.cls-58{fill:url(#linear-gradient-17);}.cls-59{fill:url(#New_Gradient_Swatch_copy_8-4);}.cls-60{opacity:0.01;}.cls-61{opacity:0.01;}.cls-62{opacity:0.02;}.cls-63{opacity:0.03;}.cls-64{opacity:0.04;}.cls-65{opacity:0.04;}.cls-66{opacity:0.05;}.cls-67{opacity:0.06;}.cls-68{opacity:0.06;}.cls-69{opacity:0.07;}.cls-70{opacity:0.08;}.cls-71{opacity:0.09;}.cls-72{opacity:0.1;}.cls-73{opacity:0.11;}.cls-74{opacity:0.11;}.cls-75{opacity:0.12;}.cls-76{opacity:0.13;}.cls-77{opacity:0.14;}.cls-78{opacity:0.14;}.cls-79{opacity:0.15;}.cls-80{fill:url(#New_Gradient_Swatch_copy_8-5);}.cls-81{fill:url(#radial-gradient-7);}.cls-82{fill:#f1f2f2;}.cls-83{fill:url(#New_Gradient_Swatch_copy_25);}.cls-84{fill:url(#New_Gradient_Swatch_copy_25-2);}.cls-85{fill:url(#New_Gradient_Swatch_copy_25-3);}.cls-86{fill:url(#New_Gradient_Swatch_copy_25-4);}.cls-87{fill:url(#New_Gradient_Swatch_copy_25-5);}.cls-88{fill:url(#New_Gradient_Swatch_copy_25-6);}.cls-89{fill:url(#New_Gradient_Swatch_copy_25-7);}.cls-90{fill:url(#New_Gradient_Swatch_copy_25-8);}.cls-91{fill:url(#New_Gradient_Swatch_copy_25-9);}.cls-92{fill:url(#New_Gradient_Swatch_copy_25-10);}.cls-93{fill:url(#New_Gradient_Swatch_copy_25-11);}.cls-94{fill:url(#New_Gradient_Swatch_copy_25-12);}.cls-95{fill:url(#New_Gradient_Swatch_copy_25-13);}.cls-96{fill:url(#New_Gradient_Swatch_copy_25-14);}.cls-97{fill:url(#New_Gradient_Swatch_copy_25-15);}.cls-98{fill:url(#New_Gradient_Swatch_copy_25-16);}.cls-99{fill:url(#New_Gradient_Swatch_copy_25-17);}.cls-100{fill:url(#New_Gradient_Swatch_copy_25-18);}.cls-101{fill:url(#New_Gradient_Swatch_copy_25-19);}.cls-102{fill:url(#New_Gradient_Swatch_copy_25-20);}.cls-103{fill:url(#New_Gradient_Swatch_copy_25-21);}.cls-104{fill:url(#New_Gradient_Swatch_copy_25-22);}.cls-105{fill:url(#New_Gradient_Swatch_copy_25-23);}.cls-106{fill:url(#New_Gradient_Swatch_copy_25-24);}.cls-107{fill:url(#New_Gradient_Swatch_copy_25-25);}.cls-108{fill:url(#New_Gradient_Swatch_copy_25-26);}.cls-109{fill:url(#New_Gradient_Swatch_copy_25-27);}.cls-110{fill:url(#New_Gradient_Swatch_copy_25-28);}.cls-111{fill:url(#New_Gradient_Swatch_copy_25-29);}.cls-112{fill:url(#New_Gradient_Swatch_copy_25-30);}.cls-113{fill:url(#New_Gradient_Swatch_copy_25-31);}.cls-114{fill:url(#New_Gradient_Swatch_copy_25-32);}.cls-115{fill:url(#New_Gradient_Swatch_copy_25-33);}.cls-116{fill:url(#New_Gradient_Swatch_copy_25-34);}.cls-117{fill:url(#New_Gradient_Swatch_copy_25-35);}.cls-118{fill:url(#New_Gradient_Swatch_copy_25-36);}.cls-119{fill:url(#New_Gradient_Swatch_copy_25-37);}.cls-120{fill:url(#New_Gradient_Swatch_copy_25-38);}.cls-121{fill:url(#New_Gradient_Swatch_copy_25-39);}.cls-122{fill:url(#New_Gradient_Swatch_copy_25-40);}.cls-123{fill:url(#New_Gradient_Swatch_copy_25-41);}.cls-124{fill:url(#New_Gradient_Swatch_copy_25-42);}.cls-125{fill:url(#New_Gradient_Swatch_copy_25-43);}.cls-126{fill:url(#New_Gradient_Swatch_copy_25-44);}.cls-127{fill:url(#New_Gradient_Swatch_copy_25-45);}.cls-128{fill:url(#New_Gradient_Swatch_copy_25-46);}.cls-129{fill:url(#New_Gradient_Swatch_copy_25-47);}.cls-130{fill:url(#New_Gradient_Swatch_copy_25-48);}.cls-131{fill:url(#New_Gradient_Swatch_copy_25-49);}.cls-132{fill:url(#New_Gradient_Swatch_copy_25-50);}.cls-133{fill:url(#New_Gradient_Swatch_copy_25-51);}.cls-134{fill:url(#New_Gradient_Swatch_copy_25-52);}.cls-135{fill:url(#New_Gradient_Swatch_copy_7);}.cls-137{fill:url(#New_Gradient_Swatch_copy_8-6);}.cls-138{fill:url(#radial-gradient-8);}.cls-139{fill:url(#New_Gradient_Swatch_copy_8-7);}.cls-140{fill:url(#radial-gradient-9);}.cls-141{fill:url(#radial-gradient-10);}.cls-142{fill:url(#radial-gradient-11);}.cls-143{fill:url(#radial-gradient-12);}</style><linearGradient id="linear-gradient" x1="10750.33" y1="4200.8" x2="12941.59" y2="4200.8" gradientTransform="matrix(-1, 0, 0, 1, 13578.92, 0)" gradientUnits="userSpaceOnUse"><stop offset="0.06" stop-color="#200041"/><stop offset="0.26" stop-color="#210243"/><stop offset="0.36" stop-color="#25084b"/><stop offset="0.43" stop-color="#2c1358"/><stop offset="0.47" stop-color="#311b61"/><stop offset="0.48" stop-color="#351f65"/><stop offset="0.5" stop-color="#422c73"/><stop offset="0.51" stop-color="#584188"/><stop offset="0.52" stop-color="#765fa7"/><stop offset="0.53" stop-color="#8770b8"/><stop offset="0.54" stop-color="#7e67ae"/><stop offset="0.56" stop-color="#5c468d"/><stop offset="0.59" stop-color="#442e75"/><stop offset="0.61" stop-color="#362066"/><stop offset="0.63" stop-color="#311b61"/><stop offset="0.67" stop-color="#2a1155"/><stop offset="0.75" stop-color="#230446"/><stop offset="0.81" stop-color="#200041"/><stop offset="1" stop-color="#200041"/></linearGradient><linearGradient id="linear-gradient-2" x1="10750.33" y1="3866.63" x2="12941.59" y2="3866.63" gradientTransform="matrix(-1, 0, 0, 1, 13578.92, 0)" gradientUnits="userSpaceOnUse"><stop offset="0.06" stop-color="#200041"/><stop offset="0.26" stop-color="#210243"/><stop offset="0.36" stop-color="#25084b"/><stop offset="0.43" stop-color="#2c1358"/><stop offset="0.47" stop-color="#311b61"/><stop offset="0.48" stop-color="#341d65"/><stop offset="0.5" stop-color="#3c2273"/><stop offset="0.51" stop-color="#492b88"/><stop offset="0.52" stop-color="#5b38a7"/><stop offset="0.53" stop-color="#653fb8"/><stop offset="0.54" stop-color="#5f3aae"/><stop offset="0.56" stop-color="#49298d"/><stop offset="0.59" stop-color="#391d75"/><stop offset="0.61" stop-color="#2f1666"/><stop offset="0.63" stop-color="#2c1361"/><stop offset="0.67" stop-color="#270c55"/><stop offset="0.75" stop-color="#220346"/><stop offset="0.81" stop-color="#200041"/><stop offset="1" stop-color="#200041"/></linearGradient><linearGradient id="linear-gradient-3" x1="11336.69" y1="4007.53" x2="12330" y2="3458.04" gradientTransform="matrix(-1, 0, 0, 1, 13578.92, 0)" gradientUnits="userSpaceOnUse"><stop offset="0" stop-color="#311b61"/><stop offset="0.2" stop-color="#290f52"/><stop offset="0.49" stop-color="#200041"/><stop offset="1" stop-color="#0f001f"/></linearGradient><linearGradient id="linear-gradient-4" x1="11863.48" y1="3747.77" x2="12058.48" y2="3420.83" gradientTransform="matrix(-1, 0, 0, 1, 13578.92, 0)" gradientUnits="userSpaceOnUse"><stop offset="0" stop-color="#fff"/><stop offset="1"/></linearGradient><radialGradient id="radial-gradient" cx="11869.97" cy="4192.06" r="779.6" gradientTransform="matrix(-1, 0, 0, 1, 13578.92, 0)" gradientUnits="userSpaceOnUse"><stop offset="0" stop-color="#af8afc"/><stop offset="1" stop-color="#10054d"/></radialGradient><linearGradient id="linear-gradient-5" x1="13471.54" y1="4393.45" x2="10118.24" y2="-246.7" xlink:href="#linear-gradient-3"/><radialGradient id="radial-gradient-2" cx="11901.98" cy="2220.06" r="1764.79" gradientTransform="matrix(-1, 0, 0, 1, 13578.92, 0)" gradientUnits="userSpaceOnUse"><stop offset="0" stop-color="#f5f6f8"/><stop offset="0.11" stop-color="#f2f1f8"/><stop offset="0.24" stop-color="#eae4f7"/><stop offset="0.37" stop-color="#ddcdf7"/><stop offset="0.5" stop-color="#caadf6"/><stop offset="0.64" stop-color="#b385f5"/><stop offset="0.71" stop-color="#a56ef4"/><stop offset="0.75" stop-color="#ab78f5"/><stop offset="0.82" stop-color="#bd94f7"/><stop offset="0.9" stop-color="#d8c1fa"/><stop offset="1" stop-color="#fff"/><stop offset="1" stop-color="#fff"/></radialGradient><linearGradient id="linear-gradient-6" x1="10390.95" y1="2199.51" x2="13578.92" y2="2199.51" gradientTransform="matrix(-1, 0, 0, 1, 13578.92, 0)" gradientUnits="userSpaceOnUse"><stop offset="0" stop-color="#ff6d63"/><stop offset="1" stop-color="#ff6715"/></linearGradient><linearGradient id="linear-gradient-7" x1="3801.79" y1="3159.3" x2="4805.56" y2="3159.3" gradientTransform="matrix(1, 0, 0, 1, 0, 0)" xlink:href="#linear-gradient-6"/><radialGradient id="radial-gradient-3" cx="4723.04" cy="2417.29" r="1002.81" gradientTransform="matrix(1, 0, 0, 1, 0, 0)" xlink:href="#radial-gradient"/><linearGradient id="linear-gradient-8" x1="4803.91" y1="3349.41" x2="2031.65" y2="2481.57" gradientUnits="userSpaceOnUse"><stop offset="0.19" stop-color="#3d065f"/><stop offset="0.93" stop-color="#3d065f"/></linearGradient><linearGradient id="linear-gradient-9" x1="4840.04" y1="4422.32" x2="3432.21" y2="1447.57" gradientTransform="matrix(1, 0, 0, 1, 0, 0)" xlink:href="#linear-gradient-3"/><linearGradient id="linear-gradient-10" x1="3808.19" y1="3176.09" x2="4692.3" y2="3176.09" gradientTransform="matrix(1, 0, 0, 1, 0, 0)" xlink:href="#linear-gradient-3"/><linearGradient id="New_Gradient_Swatch_copy_9" x1="4460.55" y1="3505.53" x2="4598.62" y2="3262.71" gradientUnits="userSpaceOnUse"><stop offset="0.04" stop-color="#9f19ab"/><stop offset="0.24" stop-color="#ae25b1"/><stop offset="0.65" stop-color="#d744bf"/><stop offset="1" stop-color="#ff63ce"/></linearGradient><linearGradient id="New_Gradient_Swatch_copy_17" x1="4077.35" y1="3682.87" x2="4654.03" y2="3541.77" gradientUnits="userSpaceOnUse"><stop offset="0.04" stop-color="#f7aa90"/><stop offset="0.23" stop-color="#f9b996"/><stop offset="0.61" stop-color="#ffe2a6"/><stop offset="0.63" stop-color="#ffe4a7"/><stop offset="0.87" stop-color="#f7aa90"/></linearGradient><radialGradient id="Radial_Gradient_1" cx="4500.82" cy="3568.63" r="200.98" gradientTransform="matrix(1, 0, 0, 1, 0, 0)" xlink:href="#linear-gradient-4"/><linearGradient id="New_Gradient_Swatch_copy_17-2" x1="3336.67" y1="2852.88" x2="4488.84" y2="2852.88" xlink:href="#New_Gradient_Swatch_copy_17"/><radialGradient id="radial-gradient-4" cx="4118.81" cy="2509.43" r="52.63" gradientTransform="matrix(1, 0, 0, 1, 0, 0)" xlink:href="#linear-gradient-4"/><radialGradient id="radial-gradient-5" cx="3796.34" cy="2852.59" r="364.18" gradientTransform="matrix(1, 0, 0, 1, 0, 0)" xlink:href="#linear-gradient-4"/><radialGradient id="radial-gradient-6" cx="3713.96" cy="2875.06" r="92.15" gradientTransform="matrix(1, 0, 0, 1, 0, 0)" xlink:href="#linear-gradient-4"/><linearGradient id="linear-gradient-11" x1="3767.38" y1="-1119.94" x2="445.59" y2="3799.66" gradientUnits="userSpaceOnUse"><stop offset="0.01" stop-color="#9f19ab"/><stop offset="0.43" stop-color="#5f27bd"/><stop offset="0.9" stop-color="#3d065f"/></linearGradient><linearGradient id="linear-gradient-12" x1="3767.38" y1="-700.85" x2="445.59" y2="4218.76" xlink:href="#linear-gradient-11"/><linearGradient id="linear-gradient-13" x1="5275.88" y1="2629.49" x2="4921.01" y2="2969.32" gradientUnits="userSpaceOnUse"><stop offset="0" stop-color="#c211a1"/><stop offset="0.01" stop-color="#bd119d"/><stop offset="0.15" stop-color="#8b0c73"/><stop offset="0.29" stop-color="#600850"/><stop offset="0.42" stop-color="#3e0533"/><stop offset="0.56" stop-color="#23031d"/><stop offset="0.7" stop-color="#0f010d"/><stop offset="0.85" stop-color="#040003"/><stop offset="1"/></linearGradient><linearGradient id="linear-gradient-14" x1="5368.57" y1="2708.82" x2="4838.01" y2="2918.69" xlink:href="#linear-gradient-13"/><linearGradient id="linear-gradient-15" x1="5428.5" y1="2791.39" x2="5111.17" y2="3107.04" xlink:href="#linear-gradient-13"/><linearGradient id="New_Gradient_Swatch_copy_8" x1="5407.01" y1="2930.37" x2="5339.01" y2="2691.11" gradientUnits="userSpaceOnUse"><stop offset="0.04" stop-color="#ffa98c"/><stop offset="0.32" stop-color="#ffb892"/><stop offset="0.86" stop-color="#fee1a3"/><stop offset="1" stop-color="#feeca8"/></linearGradient><linearGradient id="linear-gradient-16" x1="5364.86" y1="2788.52" x2="5343.87" y2="2742.35" gradientUnits="userSpaceOnUse"><stop offset="0" stop-color="#fff"/><stop offset="1" stop-color="#e6e7e8"/></linearGradient><linearGradient id="New_Gradient_Swatch_copy_8-2" x1="4905.38" y1="2499.19" x2="5289.29" y2="2727.42" xlink:href="#New_Gradient_Swatch_copy_8"/><linearGradient id="New_Gradient_Swatch_copy_8-3" x1="5178.69" y1="2837.13" x2="5375.14" y2="2810.06" xlink:href="#New_Gradient_Swatch_copy_8"/><linearGradient id="linear-gradient-17" x1="5365.47" y1="3003.51" x2="5370.62" y2="2895.42" gradientUnits="userSpaceOnUse"><stop offset="0" stop-color="#fff"/><stop offset="1" stop-color="#dedfe0"/></linearGradient><linearGradient id="New_Gradient_Swatch_copy_8-4" x1="5673.38" y1="2958.03" x2="5373.26" y2="2763.27" xlink:href="#New_Gradient_Swatch_copy_8"/><linearGradient id="New_Gradient_Swatch_copy_8-5" x1="10775.75" y1="1363.53" x2="10775.75" y2="-677.23" gradientTransform="matrix(-0.87, 0.5, 0, 1.15, 11789.1, -4315.39)" xlink:href="#New_Gradient_Swatch_copy_8"/><radialGradient id="radial-gradient-7" cx="2256.84" cy="942.34" r="832.86" gradientUnits="userSpaceOnUse"><stop offset="0" stop-color="#fff"/><stop offset="0.07" stop-color="#d8d8d8"/><stop offset="0.16" stop-color="#a6a6a6"/><stop offset="0.26" stop-color="#797979"/><stop offset="0.37" stop-color="#545454"/><stop offset="0.47" stop-color="#353535"/><stop offset="0.59" stop-color="#1e1e1e"/><stop offset="0.7" stop-color="#0d0d0d"/><stop offset="0.84" stop-color="#030303"/><stop offset="1"/></radialGradient><linearGradient id="New_Gradient_Swatch_copy_25" x1="1909.85" y1="2469.39" x2="3163.24" y2="881.77" gradientUnits="userSpaceOnUse"><stop offset="0" stop-color="#25054d"/><stop offset="1" stop-color="#45108a"/></linearGradient><linearGradient id="New_Gradient_Swatch_copy_25-2" x1="1739.22" y1="2334.67" x2="2992.6" y2="747.06" xlink:href="#New_Gradient_Swatch_copy_25"/><linearGradient id="New_Gradient_Swatch_copy_25-3" x1="1843.48" y1="2416.98" x2="3096.86" y2="829.36" xlink:href="#New_Gradient_Swatch_copy_25"/><linearGradient id="New_Gradient_Swatch_copy_25-4" x1="1775.39" y1="2363.23" x2="3028.77" y2="775.62" xlink:href="#New_Gradient_Swatch_copy_25"/><linearGradient id="New_Gradient_Swatch_copy_25-5" x1="1655.15" y1="2268.3" x2="2908.52" y2="680.69" xlink:href="#New_Gradient_Swatch_copy_25"/><linearGradient id="New_Gradient_Swatch_copy_25-6" x1="1831.99" y1="2407.92" x2="3085.38" y2="820.3" xlink:href="#New_Gradient_Swatch_copy_25"/><linearGradient id="New_Gradient_Swatch_copy_25-7" x1="1813.11" y1="2393" x2="3066.49" y2="805.39" xlink:href="#New_Gradient_Swatch_copy_25"/><linearGradient id="New_Gradient_Swatch_copy_25-8" x1="1947.75" y1="2499.3" x2="3201.13" y2="911.69" xlink:href="#New_Gradient_Swatch_copy_25"/><linearGradient id="New_Gradient_Swatch_copy_25-9" x1="1771.6" y1="2360.23" x2="3024.98" y2="772.62" xlink:href="#New_Gradient_Swatch_copy_25"/><linearGradient id="New_Gradient_Swatch_copy_25-10" x1="1899.51" y1="2461.22" x2="3152.9" y2="873.6" xlink:href="#New_Gradient_Swatch_copy_25"/><linearGradient id="New_Gradient_Swatch_copy_25-11" x1="1710.02" y1="2311.62" x2="2963.41" y2="724" xlink:href="#New_Gradient_Swatch_copy_25"/><linearGradient id="New_Gradient_Swatch_copy_25-12" x1="1826.16" y1="2403.31" x2="3079.53" y2="815.71" xlink:href="#New_Gradient_Swatch_copy_25"/><linearGradient id="New_Gradient_Swatch_copy_25-13" x1="1867.34" y1="2435.81" x2="3120.71" y2="848.21" xlink:href="#New_Gradient_Swatch_copy_25"/><linearGradient id="New_Gradient_Swatch_copy_25-14" x1="1696.76" y1="2301.14" x2="2950.12" y2="713.55" xlink:href="#New_Gradient_Swatch_copy_25"/><linearGradient id="New_Gradient_Swatch_copy_25-15" x1="1928.34" y1="2483.97" x2="3181.71" y2="896.37" xlink:href="#New_Gradient_Swatch_copy_25"/><linearGradient id="New_Gradient_Swatch_copy_25-16" x1="1614.55" y1="2236.24" x2="2867.92" y2="648.65" xlink:href="#New_Gradient_Swatch_copy_25"/><linearGradient id="New_Gradient_Swatch_copy_25-17" x1="1753.48" y1="2345.93" x2="3006.85" y2="758.32" xlink:href="#New_Gradient_Swatch_copy_25"/><linearGradient id="New_Gradient_Swatch_copy_25-18" x1="2060.08" y1="2588" x2="3313.47" y2="1000.38" xlink:href="#New_Gradient_Swatch_copy_25"/><linearGradient id="New_Gradient_Swatch_copy_25-19" x1="1911.31" y1="2470.52" x2="3164.68" y2="882.92" xlink:href="#New_Gradient_Swatch_copy_25"/><linearGradient id="New_Gradient_Swatch_copy_25-20" x1="1976.4" y1="2521.92" x2="3229.77" y2="934.31" xlink:href="#New_Gradient_Swatch_copy_25"/><linearGradient id="New_Gradient_Swatch_copy_25-21" x1="1862.41" y1="2431.93" x2="3115.78" y2="844.33" xlink:href="#New_Gradient_Swatch_copy_25"/><linearGradient id="New_Gradient_Swatch_copy_25-22" x1="1986.83" y1="2530.15" x2="3240.21" y2="942.54" xlink:href="#New_Gradient_Swatch_copy_25"/><linearGradient id="New_Gradient_Swatch_copy_25-23" x1="1657.15" y1="2269.89" x2="2910.53" y2="682.27" xlink:href="#New_Gradient_Swatch_copy_25"/><linearGradient id="New_Gradient_Swatch_copy_25-24" x1="1883" y1="2448.2" x2="3136.39" y2="860.58" xlink:href="#New_Gradient_Swatch_copy_25"/><linearGradient id="New_Gradient_Swatch_copy_25-25" x1="1708.92" y1="2310.75" x2="2962.29" y2="723.14" xlink:href="#New_Gradient_Swatch_copy_25"/><linearGradient id="New_Gradient_Swatch_copy_25-26" x1="2012.83" y1="2550.69" x2="3266.21" y2="963.07" xlink:href="#New_Gradient_Swatch_copy_25"/><linearGradient id="New_Gradient_Swatch_copy_25-27" x1="1963.94" y1="2512.09" x2="3217.32" y2="924.48" xlink:href="#New_Gradient_Swatch_copy_25"/><linearGradient id="New_Gradient_Swatch_copy_25-28" x1="1537.24" y1="2175.22" x2="2790.62" y2="587.6" xlink:href="#New_Gradient_Swatch_copy_25"/><linearGradient id="New_Gradient_Swatch_copy_25-29" x1="1761.38" y1="2352.17" x2="3014.76" y2="764.55" xlink:href="#New_Gradient_Swatch_copy_25"/><linearGradient id="New_Gradient_Swatch_copy_25-30" x1="2095.85" y1="2616.23" x2="3349.24" y2="1028.61" xlink:href="#New_Gradient_Swatch_copy_25"/><linearGradient id="New_Gradient_Swatch_copy_25-31" x1="1925.22" y1="2481.51" x2="3178.6" y2="893.9" xlink:href="#New_Gradient_Swatch_copy_25"/><linearGradient id="New_Gradient_Swatch_copy_25-32" x1="2029.48" y1="2563.82" x2="3282.86" y2="976.22" xlink:href="#New_Gradient_Swatch_copy_25"/><linearGradient id="New_Gradient_Swatch_copy_25-33" x1="1944.48" y1="2496.72" x2="3197.85" y2="909.11" xlink:href="#New_Gradient_Swatch_copy_25"/><linearGradient id="New_Gradient_Swatch_copy_25-34" x1="1841.15" y1="2415.14" x2="3094.52" y2="827.53" xlink:href="#New_Gradient_Swatch_copy_25"/><linearGradient id="New_Gradient_Swatch_copy_25-35" x1="1984.17" y1="2528.05" x2="3237.55" y2="940.44" xlink:href="#New_Gradient_Swatch_copy_25"/><linearGradient id="New_Gradient_Swatch_copy_25-36" x1="1999.11" y1="2539.85" x2="3252.49" y2="952.23" xlink:href="#New_Gradient_Swatch_copy_25"/><linearGradient id="New_Gradient_Swatch_copy_25-37" x1="2133.75" y1="2646.14" x2="3387.13" y2="1058.53" xlink:href="#New_Gradient_Swatch_copy_25"/><linearGradient id="New_Gradient_Swatch_copy_25-38" x1="1957.6" y1="2507.08" x2="3210.98" y2="919.46" xlink:href="#New_Gradient_Swatch_copy_25"/><linearGradient id="New_Gradient_Swatch_copy_25-39" x1="2093.52" y1="2614.39" x2="3346.91" y2="1026.77" xlink:href="#New_Gradient_Swatch_copy_25"/><linearGradient id="New_Gradient_Swatch_copy_25-40" x1="1896.02" y1="2458.46" x2="3149.4" y2="870.85" xlink:href="#New_Gradient_Swatch_copy_25"/><linearGradient id="New_Gradient_Swatch_copy_25-41" x1="1882.75" y1="2447.98" x2="3136.12" y2="860.39" xlink:href="#New_Gradient_Swatch_copy_25"/><linearGradient id="New_Gradient_Swatch_copy_25-42" x1="2065.16" y1="2591.99" x2="3318.53" y2="1004.39" xlink:href="#New_Gradient_Swatch_copy_25"/><linearGradient id="New_Gradient_Swatch_copy_25-43" x1="1995.64" y1="2537.11" x2="3249.02" y2="949.49" xlink:href="#New_Gradient_Swatch_copy_25"/><linearGradient id="New_Gradient_Swatch_copy_25-44" x1="2097.31" y1="2617.37" x2="3350.68" y2="1029.77" xlink:href="#New_Gradient_Swatch_copy_25"/><linearGradient id="New_Gradient_Swatch_copy_25-45" x1="2170.41" y1="2675.08" x2="3423.79" y2="1087.48" xlink:href="#New_Gradient_Swatch_copy_25"/><linearGradient id="New_Gradient_Swatch_copy_25-46" x1="2048.41" y1="2578.77" x2="3301.78" y2="991.17" xlink:href="#New_Gradient_Swatch_copy_25"/><linearGradient id="New_Gradient_Swatch_copy_25-47" x1="2172.83" y1="2677" x2="3426.21" y2="1089.38" xlink:href="#New_Gradient_Swatch_copy_25"/><linearGradient id="New_Gradient_Swatch_copy_25-48" x1="2019.83" y1="2556.22" x2="3273.23" y2="968.58" xlink:href="#New_Gradient_Swatch_copy_25"/><linearGradient id="New_Gradient_Swatch_copy_25-49" x1="2057.84" y1="2586.22" x2="3311.23" y2="998.6" xlink:href="#New_Gradient_Swatch_copy_25"/><linearGradient id="New_Gradient_Swatch_copy_25-50" x1="2149.94" y1="2658.93" x2="3403.32" y2="1071.32" xlink:href="#New_Gradient_Swatch_copy_25"/><linearGradient id="New_Gradient_Swatch_copy_25-51" x1="1570.33" y1="2201.33" x2="2823.69" y2="613.73" xlink:href="#New_Gradient_Swatch_copy_25"/><linearGradient id="New_Gradient_Swatch_copy_25-52" x1="1626.83" y1="2245.94" x2="2880.21" y2="658.33" xlink:href="#New_Gradient_Swatch_copy_25"/><linearGradient id="New_Gradient_Swatch_copy_7" x1="1694.12" y1="968.71" x2="3220.47" y2="968.71" gradientUnits="userSpaceOnUse"><stop offset="0.04" stop-color="#138bbd"/><stop offset="0.23" stop-color="#169ac7"/><stop offset="0.59" stop-color="#1fc3df"/><stop offset="1" stop-color="#2af6ff"/></linearGradient><linearGradient id="New_Gradient_Swatch_copy_8-6" x1="10722.42" y1="1992.97" x2="10796.28" y2="318.85" gradientTransform="matrix(-0.87, 0.5, 0, 1.15, 11789.1, -4315.39)" xlink:href="#New_Gradient_Swatch_copy_8"/><radialGradient id="radial-gradient-8" cx="2126.64" cy="1619.39" r="817.01" xlink:href="#radial-gradient-7"/><linearGradient id="New_Gradient_Swatch_copy_8-7" x1="2782.96" y1="3298.99" x2="2042.04" y2="2000.85" xlink:href="#New_Gradient_Swatch_copy_8"/><radialGradient id="radial-gradient-9" cx="2277.8" cy="2475.31" r="574.85" xlink:href="#radial-gradient-7"/><radialGradient id="radial-gradient-10" cx="4936.8" cy="3501.65" r="1329.46" gradientUnits="userSpaceOnUse"><stop offset="0" stop-color="#3d065f"/><stop offset="0.97" stop-color="#020002"/><stop offset="1"/></radialGradient><radialGradient id="radial-gradient-11" cx="4936.81" cy="3563.22" r="1257.47" xlink:href="#radial-gradient-10"/><radialGradient id="radial-gradient-12" cx="4830.29" cy="3670.14" r="1182.45" gradientTransform="matrix(1, 0, 0, 1, 0, 0)" xlink:href="#linear-gradient-4"/></defs><g class="cls-1"><g id="Layer_2" data-name="Layer 2"><g id="Layer_1-2" data-name="Layer 1"><path class="cls-2" d="M834.46,3828.06c0,29.41,21.35,60.43,63.32,84.66l606.54,578.87c76.73,44.29,192.8,49.11,259.25,10.74L2867,3861.48c32.13-18.54,46.61-43.8,44.5-69.94a32.83,32.83,0,0,1,.35,4.59c0,.77,0,82.59,0,83.36-.47,23.93-15.24,46.72-44.85,63.81L1763.57,4584.15c-66.45,38.36-182.52,33.55-259.25-10.75L897.78,3994.53c-42.58-24.58-64.09-56.16-63.46-86C834.43,3903.53,833.58,3848.61,834.46,3828.06Z"/><g class="cls-3"><path class="cls-4" d="M1651,4573.58c60.55,0,115.5-13.24,158.91-38.31L2913.3,3894.43c57.95-33.46,91.18-86.4,91.17-145.24,0-64.5-40-124.59-109.79-164.86l-968.36-372.51c-54.8-31.63-123.33-49.05-193-49.05-60.55,0-115.5,13.24-158.9,38.31L832.86,3635.55c-58,33.46-91.17,86.39-91.17,145.23,0,64.49,40,124.59,109.78,164.87L1458,4524.53C1512.8,4556.16,1581.33,4573.58,1651,4573.58Z"/><path class="cls-5" d="M1578.66,3208.37,845.77,3637.74c-.3.18-9.3,5.46-9.57,5.65-57.76,34-83.64,87.49-80.32,145.09,3.37,58.53,47.32,123.7,110.75,160.33l595.59,568.43c56.79,32.78,129.64,49.05,199,45.56,55,0,116.5-18.71,156-41.5l1091.92-634.16c55.67-32.15,87.21-82.65,86.92-138.57-.28-61.12-38.59-118.31-105.54-157l-962.28-370.17c-19.65-11.34-47.39-22.8-70.16-30.16a410.39,410.39,0,0,0-121.32-19.91C1676.67,3170.81,1621.65,3183.54,1578.66,3208.37Z"/><path class="cls-6" d="M1582.87,3215.66,849.11,3645.55c-.61.35-9,5.31-9.56,5.68-57.58,34.48-76.15,88-69.48,144.94C776.21,3848.58,824.7,3919,881.78,3952l584.65,558c58.78,33.94,136,49.07,205,42.09,49.54,0,117.5-24.2,153-44.7l1080.41-627.49c53.4-30.83,83.24-78.88,82.68-131.9-.56-57.74-37.18-112-101.3-149l-956.2-367.83c-17.69-10.2-49.4-22.9-69.83-29.71-37.58-12.53-78.54-20.55-120.15-21.37C1680.54,3178.85,1625.44,3191.08,1582.87,3215.66Z"/><path class="cls-7" d="M1587.08,3223l-734.63,430.4c-.91.53-8.74,5.16-9.55,5.72-57.4,35-78.51,90.54-58.64,144.8,0,46.9,61.94,122,112.68,151.25l573.7,547.53c60.78,35.09,142.27,49.07,211,38.61,44,0,118.51-29.68,150.08-47.91l1068.91-620.8c51.13-29.52,79.27-75.13,78.43-125.24-.84-54.35-35.75-105.73-97-141.11l-950.12-365.49c-15.72-9.07-51.4-23-69.5-29.27-37.11-12.76-77.66-21.6-119-22.83C1684.41,3186.89,1629.24,3198.61,1587.08,3223Z"/><path class="cls-8" d="M1591.29,3230.24l-735.5,430.91c-1.22.7-8.47,5-9.55,5.76C789,3702.4,772,3758.83,798.45,3811.57c0,41,69.25,121.07,113.65,146.7l562.75,537.09c62.77,36.24,148.58,49.07,217.07,35.12,38.53,0,119.51-35.15,147.14-51.1l1057.4-614.12c48.86-28.21,75.3-71.37,74.19-118.58-1.13-51-34.33-99.44-92.81-133.18l-944-363.15c-13.76-7.94-53.39-23.23-69.17-28.83-36.65-13-76.77-22.65-117.83-24.29C1688.28,3194.92,1633,3206.14,1591.29,3230.24Z"/><path class="cls-9" d="M1595.49,3237.54,859.13,3669c-1.52.88-8.19,4.86-9.54,5.8-57,36-70.06,93.3-37,144.51,0,35.18,76.56,120.19,114.61,142.17l551.81,526.64c64.77,37.39,154.9,49.07,223.09,31.64,33,0,120.52-40.63,144.2-54.3L2892.25,3858c46.58-26.9,71.33-67.62,69.94-111.91-1.4-47.59-32.91-93.15-88.55-125.27l-938-360.81c-11.79-6.81-55.37-23.46-68.85-28.39-36.19-13.24-75.88-23.7-116.65-25.75C1692.15,3203,1636.82,3213.67,1595.49,3237.54Z"/><path class="cls-10" d="M1599.7,3244.83,862.47,3676.75c-1.83,1.06-7.91,4.71-9.53,5.84-56.85,36.51-65.85,94.68-26.11,144.37,0,29.31,83.87,119.31,115.58,137.62l540.86,516.19c66.76,38.54,161.22,49.09,229.12,28.16,27.52,0,121.52-46.11,141.25-57.5L2888,3850.68c44.31-25.59,67.36-63.86,65.7-105.25-1.69-44.21-31.49-86.86-84.31-117.35l-931.89-358.47c-9.83-5.67-57.33-23.72-68.52-28-35.75-13.49-75-24.74-115.49-27.2C1696,3211,1640.62,3221.21,1599.7,3244.83Z"/><path class="cls-11" d="M1603.91,3252.12l-738.1,432.44c-2.14,1.23-7.63,4.55-9.53,5.87-56.66,37-61.62,96.06-15.26,144.23,0,23.45,91.18,118.43,116.55,133.08l529.91,505.74c68.75,39.69,167.53,49.09,235.15,24.68,22,0,122.52-51.59,138.31-60.7l1022.89-594.08c42-24.27,63.39-60.1,61.45-98.58-2-40.83-30.07-80.57-80.06-109.43l-925.81-356.13c-7.86-4.54-59.28-24-68.19-27.5-35.33-13.74-74.11-25.8-114.32-28.67C1699.89,3219,1644.41,3228.74,1603.91,3252.12Z"/><path class="cls-12" d="M1608.12,3259.41l-739,433c-2.44,1.41-7.36,4.4-9.52,5.91-56.48,37.53-57.4,97.45-4.42,144.08,0,17.59,98.48,117.56,117.51,128.54l519,495.3c70.75,40.84,173.85,49.09,241.17,21.19,16.52,0,123.54-57.06,135.37-63.9l1011.39-587.39c39.76-23,59.42-56.35,57.21-91.91-2.25-37.45-28.65-74.29-75.82-101.52l-919.73-353.79c-5.89-3.4-61.21-24.39-67.87-27.06-34.9-14-73.22-26.85-113.15-30.12C1703.76,3227.08,1648.21,3236.27,1608.12,3259.41Z"/><path class="cls-13" d="M1612.33,3266.7,872.49,3700.16c-2.75,1.59-7.08,4.25-9.51,6-56.3,38-53.19,98.83,6.42,143.94,0,11.73,105.79,116.67,118.48,124l508,484.85c72.74,42,180.17,49.1,247.2,17.71,11,0,124.54-62.54,132.43-67.1l999.88-580.71c37.49-21.65,55.45-52.59,53-85.25-2.53-34.07-27.23-68-71.57-93.6L1943.15,3298.5c-3.93-2.27-63.12-24.79-67.54-26.61-34.5-14.26-72.34-27.9-112-31.59C1707.63,3235.12,1652,3243.8,1612.33,3266.7Z"/><path class="cls-14" d="M1616.54,3274,875.83,3708c-3.05,1.76-6.8,4.1-9.51,6-56.11,38.54-49,100.21,17.27,143.8,0,5.86,113.1,115.79,119.44,119.45l497.08,474.4c74.74,43.15,186.48,49.11,253.22,14.23,5.51,0,125.55-68,129.49-70.29l988.38-574c35.22-20.33,51.48-48.84,48.72-78.59-2.81-30.68-25.81-61.71-67.33-85.67L1945,3308.13c-2-1.13-65-25.23-67.21-26.17-34.1-14.52-71.45-28.95-110.82-33C1711.5,3243.15,1655.8,3251.33,1616.54,3274Z"/><path d="M1763.57,4455.06,2867,3814.21c66.45-38.36,58.12-105.37-18.61-149.67L1880,3292c-76.73-44.3-192.8-49.11-259.25-10.74L879.17,3715.76c-66.45,38.37-58.12,105.38,18.61,149.68l606.54,578.87C1581.05,4488.61,1697.12,4493.42,1763.57,4455.06Z"/></g><path class="cls-15" d="M1763.57,4453.51,2867,3812.67c29.61-17.09,44.38-39.88,44.85-63.81,0-.77,0-82.59,0-83.36-.53-29.09-22,21.42-63.46-2.51L1880,3290.49c-76.73-44.3-192.8-49.11-259.25-10.75L879.17,3714.22c-22.18,12.81-38.27-41.55-44-24.27-1.91,5.76-.69,82-.82,88-.63,29.79,20.88,61.37,63.46,86l606.54,578.87C1581.05,4487.07,1697.12,4491.88,1763.57,4453.51Z"/><path class="cls-16" d="M1763.57,4371.7,2867,3730.86c66.45-38.37,58.12-105.38-18.61-149.68L1880,3208.68c-76.73-44.3-192.8-49.12-259.25-10.75L879.17,3632.41c-66.45,38.36-58.12,105.37,18.61,149.67L1504.32,4361C1581.05,4405.25,1697.12,4410.06,1763.57,4371.7Z"/><path class="cls-17" d="M879.17,3632.41l741.58-434.48c66.45-38.37,182.52-33.55,259.25,10.75l487.87,187.66a121.91,121.91,0,0,1-15.14,10.46L1249.31,4047.64c-15.3,8.83-33.3,15.27-52.77,19.57L897.78,3782.08C821.05,3737.78,812.72,3670.77,879.17,3632.41Z"/><path class="cls-18" d="M897.78,3768.19l606.54,578.87c76.73,44.3,192.8,49.11,259.25,10.75L2867,3717c27.57-15.91,42.07-36.78,44.35-58.89,3.45,27.15-11.05,53.56-44.35,72.79L1763.57,4371.7c-66.45,38.36-182.52,33.55-259.25-10.75L897.78,3782.08c-44.9-25.92-66.18-59.6-63-90.78C838.25,3718.33,859.5,3746.09,897.78,3768.19Z"/><path class="cls-19" d="M322,4375.25l2710-1565.86c138.55-80,250.86-294.58,250.86-479.31V257.52c0-184.73-112.31-269.64-250.86-189.64L322,1633.74c-138.55,80-250.86,294.58-250.86,479.31V4185.61C71.1,4370.34,183.41,4455.25,322,4375.25Z"/><path class="cls-20" d="M289.65,4231,2961.42,2687.4c111.49-70.85,180.45-212.44,180.45-357.33V243.9c0-34.33-37.34-55.65-67-38.3l-7.86,4.58L392.44,1755.72C259.71,1832.23,212,1968.18,212,2113.06v2079.6c0,36.81,39.81,59.89,71.79,41.66C286.32,4232.88,288.33,4231.73,289.65,4231Z"/><path class="cls-21" d="M3141.87,404V243.9c0-34.33-37.34-55.65-67-38.31-3.45,2-6.18,3.62-7.86,4.59L392.44,1755.72c-127.75,73.64-176.62,202.38-180.11,341.13Z"/><path class="cls-22" d="M212,2113.06v2079.6c0,36.82,39.81,59.89,71.79,41.66,2.54-1.44,4.55-2.59,5.87-3.36L2961.42,2687.4c111.49-70.86,180.45-212.44,180.45-357.33V243.9c0-34.33-37.34-55.65-67-38.3l-7.86,4.58L392.44,1755.72C259.71,1832.23,212,1968.17,212,2113.06Zm28.18,0c0-108.14,28.86-253.68,166.38-333L3089.14,229.91a16,16,0,0,1,8.17-2.3c7.88,0,16.39,6.23,16.39,16.29V2330.07c0,138-65.7,268.92-166.38,332.93L269.84,4209.84a19.47,19.47,0,0,1-9.76,2.67c-9.57,0-19.91-7.59-19.91-19.85Z"/><path class="cls-23" d="M250.86,1596l2710-1565.85C3015.63-1.54,3066.33-7.38,3107.6,8.56c5.25,2,75.2,39.19,80.13,41.92a1.16,1.16,0,0,1,.23.15c-42.74-20.76-96.95-16.88-156.05,17.24L322,1633.74c-138.55,80-250.86,294.58-250.86,479.31V4185.61c0,115.28,43.75,191.67,110.32,213.38-5.43.3-12.19-1.81-22-7.48-3.17-1.83-79.09-44.66-82.11-46.78C29.67,4311.36,0,4242.78,0,4147.83V2075.28C0,1890.55,112.32,1676,250.86,1596Z"/><path class="cls-24" d="M309.92,1627.72l2710-1565.86c56.81-32.81,109-37.48,151.1-19.31-35.89-5.69-77.11,3-121,28.34L340,1636.75c-138.55,80-250.86,294.58-250.86,479.32V4188.62c0,109,39.26,182.81,99.76,208.95-77.4-12.27-129.86-91.78-129.86-218V2107C59.06,1922.3,171.37,1707.71,309.92,1627.72Z"/><g class="cls-3"><path class="cls-4" d="M4724.15,4595.35c-27.85,0-53.13-6.09-73.1-17.62l-443.94-252.64-443.94-252.64c-26.66-15.39-42-39.75-42-66.81,0-29.68,18.41-57.32,50.52-75.85l290.52-163.47c25.21-14.55,56.73-22.56,88.77-22.56,27.86,0,53.14,6.09,73.11,17.62L4668.08,4014,5112,4266.65c26.66,15.39,41.94,39.75,41.94,66.82,0,29.67-18.41,57.31-50.5,75.85l-290.53,163.46C4787.72,4587.34,4756.19,4595.35,4724.15,4595.35Z"/><path class="cls-5" d="M3779.6,3936l79-44.05c3.21-1.85,150.9-82.43,153.68-80.82L4063,3786.3c22.91-13.23,56.59-17.62,85.72-17.62,25.32,0,52.43,7.92,70.58,18.4L4574.7,3989.5l75.89,43.23,431.26,245.65c13.93,8,26.84,20.43,33.51,32.64a68.57,68.57,0,0,1,8.79,31.06c.89,28.52-16.65,55.55-48.22,73.78l-79,44.05c-3.2,1.85-150.9,82.43-153.68,80.82l-50.78,24.87c-22.91,13.23-56.59,17.62-85.72,17.62-25.32,0-52.42-7.92-70.58-18.4L4280.83,4362.4l-75.89-43.23-431.26-245.65c-13.93-8-26.84-20.43-33.51-32.65a68.37,68.37,0,0,1-8.79-31C3730.49,3981.3,3748,3954.26,3779.6,3936Z"/><path class="cls-6" d="M3787.47,3942.29l76.83-42.46c6.42-3.7,144.69-76.44,150.24-73.23l49.28-20.32c20.62-11.9,56.45-12.67,82.67-12.67,22.79,0,51.71,9.74,68.05,19.18l344.91,196.66,73.65,42,418.58,238.66c12.53,7.24,26.83,20.2,33.07,31.06,5.32,9.28,8.94,19.05,9.59,29.53,1.68,27.37-14.9,53.79-45.93,71.71l-76.84,42.46c-6.42,3.71-144.68,76.44-150.24,73.24l-49.27,20.31c-20.63,11.91-56.46,12.67-82.67,12.67-22.8,0-51.72-9.74-68.06-19.17l-344.91-196.66-73.65-42L3784.2,4074.59c-12.54-7.23-26.84-20.2-33.08-31.06-5.32-9.28-8.94-19.05-9.59-29.53C3739.85,3986.62,3756.43,3960.2,3787.47,3942.29Z"/><path class="cls-7" d="M3795.34,3948.54l74.69-40.87c9.63-5.56,138.46-70.45,146.8-65.64l47.77-15.77c18.33-10.58,56.31-7.72,79.61-7.72,20.26,0,51,11.57,65.53,19.95l334.46,190.9,71.42,40.77,405.89,231.67c11.14,6.43,26.87,19.95,32.63,29.47,5.38,8.91,9.42,18,10.39,28,2.53,26.22-13.15,52-43.65,69.64l-74.69,40.86c-9.63,5.56-138.46,70.46-146.8,65.65l-47.77,15.77c-18.33,10.58-56.31,7.72-79.62,7.72-20.26,0-51-11.57-65.52-19.95L4272,4348.1l-71.42-40.77-405.89-231.67c-11.14-6.43-26.87-19.95-32.63-29.48-5.39-8.91-9.43-18-10.39-28C3749.15,3992,3764.83,3966.15,3795.34,3948.54Z"/><path class="cls-8" d="M3803.2,3954.79l72.55-39.27c12.84-7.42,132.24-64.48,143.36-58.06l46.26-11.22c16.05-9.26,56.18-2.77,76.57-2.77,17.73,0,50.29,13.39,63,20.73l324,185.13,69.19,39.54,393.21,224.68c9.75,5.63,26.95,19.68,32.19,27.9,5.45,8.55,9.91,17,11.19,26.47,3.39,25.08-11.39,50.26-41.36,67.57l-72.55,39.28c-12.84,7.41-132.24,64.47-143.36,58L4731.19,4544c-16,9.26-56.18,2.77-76.57,2.77-17.73,0-50.29-13.39-63-20.73l-324-185.13-69.18-39.54-393.21-224.68c-9.74-5.63-26.95-19.68-32.19-27.9-5.45-8.55-9.91-17-11.19-26.47C3758.45,3997.27,3773.23,3972.09,3803.2,3954.79Z"/><path class="cls-9" d="M3811.07,3961.05l70.41-37.69c16-9.27,126-58.49,139.91-50.47l44.76-6.67c13.75-7.94,56,2.18,73.52,2.18,15.19,0,49.58,15.21,60.47,21.5l313.55,179.38,67,38.3,380.53,217.69c8.35,4.83,27.08,19.39,31.75,26.32,5.52,8.21,10.4,16,12,24.95,4.26,23.93-9.64,48.49-39.07,65.49l-70.41,37.69c-16.05,9.26-126,58.49-139.92,50.47l-44.76,6.67c-13.75,7.93-56-2.18-73.51-2.18-15.2,0-49.59-15.22-60.48-21.51L4263.21,4333.8l-66.95-38.31L3815.74,4077.8c-8.36-4.82-27.09-19.38-31.75-26.31-5.53-8.22-10.4-16-12-24.95C3767.73,4002.6,3781.63,3978,3811.07,3961.05Z"/><path class="cls-10" d="M3818.94,3967.3l68.26-36.1c19.26-11.12,119.8-52.51,136.48-42.88l43.25-2.12c11.46-6.62,55.9,7.12,70.46,7.12,12.66,0,48.87,17,57.95,22.29l303.1,173.61,64.72,37.08L4931,4337c7,4,27.27,19.06,31.31,24.73,5.61,7.89,10.89,15,12.79,23.42,5.14,22.79-7.89,46.74-36.79,63.42l-68.26,36.1c-19.26,11.12-119.81,52.51-136.48,42.88l-43.26,2.12c-11.45,6.61-55.89-7.13-70.46-7.13-12.66,0-48.87-17-58-22.28l-303.09-173.62-64.72-37.06-367.84-210.71c-7-4-27.28-19.06-31.31-24.73-5.62-7.89-10.89-15-12.79-23.42C3777,4007.92,3790,3984,3818.94,3967.3Z"/><path class="cls-11" d="M3826.8,3973.55l66.13-34.51c22.46-13,113.58-46.52,133-35.29l41.75,2.43c9.17-5.29,55.76,12.07,67.41,12.07,10.13,0,48.16,18.87,55.42,23.06l292.65,167.86,62.48,35.84,355.15,203.71c5.58,3.22,27.52,18.7,30.87,23.15,5.72,7.58,11.39,14,13.59,21.89,6,21.65-6.12,45-34.49,61.36l-66.13,34.5c-22.46,13-113.58,46.53-133,35.3l-41.75-2.44c-9.17,5.3-55.76-12.07-67.41-12.07-10.13,0-48.16-18.86-55.42-23.06L4254.4,4319.49l-62.48-35.83-355.15-203.72c-5.57-3.21-27.53-18.7-30.88-23.14-5.71-7.59-11.38-14-13.58-21.9C3786.27,4013.25,3798.43,3989.92,3826.8,3973.55Z"/><path class="cls-12" d="M3834.67,3979.8l64-32.92c25.67-14.82,107.36-40.54,129.59-27.7l40.25,7c6.87-4,55.62,17,64.35,17,7.6,0,47.46,20.69,52.9,23.84l282.19,162.09,60.25,34.61,342.47,196.73c4.18,2.41,28.51,17.85,30.43,21.56a46.09,46.09,0,0,1,14.39,20.37c6.94,20.5-4.37,43.21-32.21,59.28l-64,32.91c-25.67,14.82-107.36,40.55-129.59,27.71l-40.25-7c-6.87,4-55.61-17-64.35-17-7.6,0-47.45-20.69-52.9-23.84L4250,4312.34l-60.25-34.6L3847.28,4081c-4.18-2.41-28.51-17.86-30.43-21.56a46.17,46.17,0,0,1-14.39-20.37C3795.52,4018.58,3806.83,3995.87,3834.67,3979.8Z"/><path class="cls-13" d="M3842.54,3986.05l61.84-31.32c28.88-16.68,101.14-34.56,126.15-20.12l38.74,11.53c4.58-2.65,55.47,22,61.3,22,5.06,0,46.74,22.51,50.37,24.61l271.74,156.34,58,33.37,329.79,189.74c2.79,1.61,28.71,17.51,30,20,7.37,5.53,12.4,12,15.19,18.84,7.86,19.35-2.62,41.45-29.92,57.21l-61.84,31.32c-28.88,16.68-101.14,34.56-126.15,20.12L4629,4508.11c-4.59,2.65-55.48-22-61.31-22-5.06,0-46.74-22.51-50.37-24.61L4245.6,4305.19l-58-33.37L3857.8,4082.08c-2.79-1.61-28.71-17.51-30-20-7.37-5.53-12.39-12-15.19-18.84C3804.76,4023.91,3815.23,4001.81,3842.54,3986.05Z"/><path class="cls-14" d="M3850.41,3992.3l59.69-29.73C3942.19,3944,4005,3934,4032.81,3950l37.24,16.08c2.29-1.33,55.33,26.92,58.25,26.92,2.53,0,46,24.34,47.84,25.38L4437.43,4169l55.78,32.15,317.1,182.75c1.39.8,28.91,17.15,29.55,18.39,7.61,5,12.91,10.95,16,17.31,8.79,18.18-.86,39.69-27.64,55.15l-59.69,29.73c-32.09,18.52-94.92,28.57-122.71,12.53l-37.24-16.08c-2.29,1.32-55.34-26.92-58.25-26.92-2.53,0-46-24.34-47.84-25.39L4241.19,4298l-55.77-32.14-317.11-182.75c-1.39-.8-28.91-17.16-29.55-18.39-7.61-5-12.91-11-16-17.32C3814,4029.26,3823.63,4007.76,3850.41,3992.3Z"/><path d="M4623.87,4514.37l-387.08-223.48-387.08-223.48c-30.57-17.65-26.74-48.48,8.56-68.86l57.56-28.14c35.29-20.38,88.69-22.59,119.27-4.94L4422.17,4189l387.08,223.48c30.57,17.65,26.74,48.48-8.56,68.86l-57.55,28.14C4707.84,4529.81,4654.44,4532,4623.87,4514.37Z"/></g><path class="cls-25" d="M4663.74,4458.94,3969.34,4058c-78.33-45.22-141.83-166.55-141.83-271V1937.78c0-53.12-43.65-64.86-17.21-83.94,1-.72,62-28.43,63.14-28.87,28.47-10.9,58.92-15.76,95.9,5.59l694.4,400.91c78.33,45.22,141.82,166.54,141.82,271V4351.72c0,55.5-17.92,95.06-46.48,113.16-1.69,1.08-75.16,36-77.05,36.64C4656.72,4510,4698,4478.71,4663.74,4458.94Z"/><path class="cls-21" d="M4657.34,2233.6l-694.4-400.91c-37-21.35,656,413.71,656,413.71,78.33,45.22,141.83,166.54,141.83,271,0,0,38.39,1892,38.39,1836.48V2504.59C4799.17,2400.15,4735.67,2278.82,4657.34,2233.6Z"/><path class="cls-26" d="M4609.8,4483.6l-694.4-400.9c-78.33-45.23-141.82-166.55-141.82-271V1962.44c0-104.44,63.49-152.44,141.82-107.22l694.4,400.91c78.33,45.22,141.83,166.55,141.83,271V4376.39C4751.63,4480.83,4688.13,4528.83,4609.8,4483.6Z"/><path class="cls-27" d="M4597.45,4490.28l-694.4-400.91c-78.33-45.22-141.83-166.55-141.83-271V1969.11c0-104.43,63.5-152.44,141.83-107.21l694.4,400.91c78.32,45.22,141.82,166.54,141.82,271V4383.06C4739.27,4487.5,4675.77,4535.5,4597.45,4490.28Z"/><path class="cls-28" d="M3780.56,3830.69V1979.14c0-91.55,55.67-133.63,124.33-94l690.71,398.79c68.67,39.64,124.33,146,124.33,237.55V4373c0,91.55-55.66,133.63-124.33,94l-690.71-398.79C3836.23,4028.6,3780.56,3922.24,3780.56,3830.69Z"/><path class="cls-29" d="M3808.19,3842V1999.78c0-76.63,46.59-111.85,104.07-78.67l676,390.28c57.47,33.18,104.06,122.2,104.06,198.84V4352.4c0,76.63-46.59,111.85-104.06,78.67l-676-390.28C3854.78,4007.61,3808.19,3918.59,3808.19,3842Z"/><path class="cls-30" d="M3920.08,1941.48c-54.16-31.27-98.08-6.24-98.08,55.92V3860.28c0,62.16,43.92,137.91,98.08,169.18l660.33,381.24c54.17,31.27,98.08,6.23,98.08-55.92V2491.89c0-62.16-43.91-137.9-98.08-169.17Z"/><path class="cls-31" d="M4527.86,2411.32l85.75,49.51c3.27,1.88,5.91.38,5.91-3.37a13,13,0,0,0-5.91-10.2l-85.75-49.51c-3.27-1.89-5.91-.38-5.91,3.37A13,13,0,0,0,4527.86,2411.32Zm85.75,66.47-85.75-49.5c-3.27-1.89-5.91-.38-5.91,3.37a13,13,0,0,0,5.91,10.2l85.75,49.51c3.27,1.88,5.91.37,5.91-3.38A13,13,0,0,0,4613.61,2477.79Zm0,30.54-85.75-49.51c-3.27-1.88-5.91-.37-5.91,3.38a13,13,0,0,0,5.91,10.2l85.75,49.5c3.27,1.89,5.91.38,5.91-3.37A13,13,0,0,0,4613.61,2508.33Z"/><ellipse class="cls-31" cx="3988.2" cy="2106.93" rx="11.62" ry="20.13" transform="translate(-518.17 2300.65) rotate(-30.31)"/><path class="cls-31" d="M3959.4,2090.14c0,9.05-6.39,12.7-14.27,8.15s-14.28-15.58-14.28-24.63,6.39-12.69,14.28-8.14S3959.4,2081.1,3959.4,2090.14Z"/><path class="cls-31" d="M3916.33,2065.12c0,9.05-6.39,12.69-14.27,8.14s-14.28-15.58-14.28-24.63,6.39-12.69,14.28-8.14S3916.33,2056.07,3916.33,2065.12Z"/><path class="cls-22" d="M4580.41,2322.72l-660.33-381.24c-54.16-31.27-98.08-6.24-98.08,55.92V3860.29c0,62.15,43.92,137.89,98.08,169.17l660.33,381.24c54.17,31.27,98.08,6.23,98.08-55.92V2491.89C4678.49,2429.73,4634.58,2354,4580.41,2322.72ZM4670,4354.78c0,19.29-4.54,35.15-13.13,45.86-7.87,9.81-19.08,15-32.39,15h0c-12,0-25.79-4.27-39.75-12.33l-660.33-381.24c-51.73-29.86-93.82-102.43-93.82-161.78V1997.4c0-37.54,17.45-60.86,45.53-60.86,12.05,0,25.79,4.27,39.76,12.33l660.33,381.24C4627.87,2360,4670,2432.56,4670,2491.9Z"/><path class="cls-32" d="M4204,3558.8V3441.26c0-44.28,47.92-72,86.28-49.85l265,152.74a110.4,110.4,0,0,1,55.27,95.65v117.54c0,44.28-47.91,72-86.28,49.86l-265-152.75A110.4,110.4,0,0,1,4204,3558.8Z"/><path class="cls-33" d="M4189.68,3565.15V3447.61c0-44.28,47.91-72,86.28-49.86l265,152.75a110.4,110.4,0,0,1,55.27,95.65v117.54c0,44.28-47.92,72-86.28,49.85L4245,3660.8A110.4,110.4,0,0,1,4189.68,3565.15Z"/><path class="cls-34" d="M4541,3550.5l-265-152.75a56.77,56.77,0,0,0-52.51-2.46,56.71,56.71,0,0,1,44,5.64l265,152.74a110.43,110.43,0,0,1,55.27,95.66v117.53c0,24.28-14.44,43.5-33.77,52.33,23.45-6.57,42.23-27.78,42.23-55.5V3646.15A110.4,110.4,0,0,0,4541,3550.5Z"/><polygon class="cls-31" points="4361.07 3596.37 4301.57 3474.22 4488.59 3669.99 4297.32 3652.23 4361.07 3596.37"/><path class="cls-35" d="M3900.54,2969.16V2851.63c0-44.28,47.91-72,86.28-49.86l558.62,318.14a110.41,110.41,0,0,1,55.28,95.65V3333.1c0,44.28-47.92,72-86.29,49.85l-558.62-318.13A110.41,110.41,0,0,1,3900.54,2969.16Z"/><path class="cls-22" d="M4529.41,3375.47l-558.62-318.14a110.41,110.41,0,0,1-55.28-95.66V2844.14a56.77,56.77,0,0,1,24.68-47.12c-22.22,7.37-39.65,27.93-39.65,54.61v117.53a110.41,110.41,0,0,0,55.27,95.66L4514.43,3383c20.8,12,44.35,9.25,61.61-2.75A56.65,56.65,0,0,1,4529.41,3375.47Z"/><path class="cls-36" d="M4349.44,2459.31l-200.15-115.55c-12.28-7.09-22.23-1.42-22.23,12.68V2492c0,14.09,9.95,31.26,22.23,38.35l200.15,115.56c12.29,7.09,22.24,1.41,22.24-12.68V2497.67C4371.68,2483.58,4361.73,2466.4,4349.44,2459.31Zm11.71,182.15-78.91-121.13-32.87,17.36-32.8-55.35-79,30c-.11-.17,64.62-39.24,71.18-43.21-32.59-55-72.92-123.09-72.85-123.11l113.45,170.57s113.68-39.22,113.79-39l-73.11,38.62C4297.31,2529,4361.26,2641.43,4361.15,2641.46Z"/><path class="cls-37" d="M3973,3003.07a140.66,140.66,0,0,1-20.78-63.16c-.27-5.83-.4-4-.4-11.35q0-11.2.4-18.58,1.93-19.26,10.33-30.2t23.52-11.39q15.12-.43,36,11.62c45.87,26.48,70.73,70.21,72.78,112.32.26,6.12.4,8.26.4,12,0,5.54-.14,10.15-.4,13.88q-.78,15.67-8.59,19.89t-19.51-2.53a50.58,50.58,0,0,1-14.33-12.08,62.21,62.21,0,0,1-8.49-13.18,13,13,0,0,1-8.68,5.17c-3.72.62-9.14-1.13-16.3-5.26q-14.62-8.44-23.11-25.43t-8.5-38.49q0-21.51,8.4-28.85t22.83,1a44.43,44.43,0,0,1,11.7,9.55,58.72,58.72,0,0,1,8,12.35V2937c0-1.65.45-2.7,1.37-3.14a3.48,3.48,0,0,1,3.32.47l7.8,4.5a9.22,9.22,0,0,1,3.4,3.42,9.12,9.12,0,0,1,1.29,4.66v46.56a31.19,31.19,0,0,0,3,14.29,21,21,0,0,0,8.28,9c4,2.33,6.89,2.27,8.6-.19s2.53-5.84,2.53-10.19c.25-4.32.39-8.94.39-13.87,0-2.23-.14-3.34-.39-8.86-1-18.51-5.83-32.25-14.35-45.69s-22.33-27.87-41.46-38.92q-23.79-13.72-37-7.57t-15.52,29.67c-.39,3.5-.59,9.27-.59,17.34,0,7.91.2,5.79.59,10.34a101.8,101.8,0,0,0,15.7,47.46q13.56,21.17,38.34,35.46c8.07,4.66,14.7,7.84,19.9,9.59s9.14,2.52,11.82,2.35a51.59,51.59,0,0,0,8.87-1.49c1.17-.36,2.08-.63,2.73-.77a4,4,0,0,1,2.73.79l10.93,6.3a9.49,9.49,0,0,1,3.32,3.49,9.15,9.15,0,0,1,1.36,4.59,4.8,4.8,0,0,1-1.17,2.69q-20.7,14.46-60.49-8.51Q3990.85,3031.85,3973,3003.07Zm61.25-9.56q4-4.4,4-17.83t-4-22.58a30.21,30.21,0,0,0-13-14.32q-16.8-9.69-16.78,17.41a54.86,54.86,0,0,0,4.19,22,30,30,0,0,0,12.59,14.55Q4030.23,2997.93,4034.24,2993.51Z"/><path class="cls-38" d="M4154.25,3509.14a7.43,7.43,0,0,1-3.29-.76c-8.63-4.23-17.67-9.07-26.87-14.41a7.49,7.49,0,0,1,7.51-13c8.91,5.16,17.63,9.85,25.94,13.91a7.49,7.49,0,0,1-3.29,14.22Zm-51.93-29.92a7.51,7.51,0,0,1-4.09-1.22q-12.28-8-25-17.17a7.5,7.5,0,0,1,8.77-12.16c8.24,5.95,16.4,11.55,24.41,16.79a7.49,7.49,0,0,1-4.11,13.76Zm-48.67-35a7.45,7.45,0,0,1-4.6-1.59q-11.7-9.12-23.51-19a7.49,7.49,0,0,1,9.64-11.47q11.59,9.75,23.08,18.72a7.49,7.49,0,0,1-4.61,13.39Zm-45.91-38.54a7.49,7.49,0,0,1-5-1.92q-11.11-10-22.14-20.57a7.49,7.49,0,0,1,10.37-10.81q10.84,10.4,21.78,20.24a7.49,7.49,0,0,1-5,13.06Zm-43.25-41.51a7.48,7.48,0,0,1-5.36-2.26q-10.47-10.72-20.75-22a7.48,7.48,0,1,1,11-10.11q10.11,11,20.43,21.6a7.49,7.49,0,0,1-5.36,12.72ZM3924,3320a7.5,7.5,0,0,1-5.69-2.62q-9.8-11.46-19.25-23.28a7.49,7.49,0,0,1,11.71-9.35q9.27,11.63,18.92,22.89A7.49,7.49,0,0,1,3924,3320Zm-37.35-46.84a7.46,7.46,0,0,1-6-3q-9-12.18-17.54-24.67a7.49,7.49,0,1,1,12.38-8.44q8.34,12.24,17.2,24.2a7.5,7.5,0,0,1-6,12Zm-33.74-49.59a7.48,7.48,0,0,1-6.37-3.54q-8-12.93-15.41-26.08a7.49,7.49,0,1,1,13.06-7.33q7.22,12.87,15.08,25.5a7.5,7.5,0,0,1-6.36,11.45Zm-29.24-52.28a7.48,7.48,0,0,1-6.71-4.17q-6.79-13.7-12.76-27.56a7.49,7.49,0,0,1,13.76-5.91q5.79,13.49,12.41,26.82a7.46,7.46,0,0,1-3.38,10A7.3,7.3,0,0,1,3823.7,3171.28Zm-23.56-55.06a7.5,7.5,0,0,1-7-5c-3.48-9.73-6.61-19.49-9.29-29a7.49,7.49,0,0,1,14.42-4.07c2.59,9.2,5.61,18.63,9,28a7.49,7.49,0,0,1-7.05,10Zm-16.29-57.6a7.49,7.49,0,0,1-7.28-5.79q-3.45-14.74-7.35-28.68a7.49,7.49,0,1,1,14.42-4q4,14.25,7.51,29.32a7.49,7.49,0,0,1-5.6,9A7.66,7.66,0,0,1,3783.85,3058.62ZM3767.67,3001a7.5,7.5,0,0,1-7.11-5.12q-4.77-14.37-10-27.77a7.49,7.49,0,1,1,13.94-5.48q5.4,13.77,10.33,28.51a7.48,7.48,0,0,1-7.11,9.86Zm-21.93-55.67a7.5,7.5,0,0,1-6.81-4.35q-6.33-13.71-13.18-26.34a7.49,7.49,0,0,1,13.17-7.14q7.07,13.05,13.61,27.2a7.49,7.49,0,0,1-6.79,10.63Zm-28.53-52.58a7.44,7.44,0,0,1-6.32-3.47c-3.82-6-7.78-11.88-11.81-17.54l-3.57.45a7.49,7.49,0,0,1-2-14.84,7.21,7.21,0,0,1,2.26-2.73,7.47,7.47,0,0,1,10.17,1.12q8.64-1.14,17.36-2.35a7.49,7.49,0,0,1,2.06,14.83l-9.54,1.31q3.94,5.76,7.72,11.72a7.49,7.49,0,0,1-6.31,11.5ZM3535.37,2884q-10.5,0-20.47-.33a7.48,7.48,0,0,1-7.24-7.72c.13-4.14,4.15-7.52,7.72-7.24,6.69.22,13.63.35,20.67.31l8.95-.06a7.49,7.49,0,1,1,.18,15l-9.13.06Zm39.71-.94a7.49,7.49,0,0,1-.33-15q14.52-.66,29.75-1.75a7.49,7.49,0,0,1,1.06,14.94c-10.26.74-20.33,1.33-30.14,1.77Zm-89.83-1.23a5.86,5.86,0,0,1-.72,0c-11-1.06-21.21-2.5-30.37-4.29a7.49,7.49,0,1,1,2.86-14.7c8.7,1.7,18.43,3.07,28.94,4.08a7.49,7.49,0,0,1-.71,14.94Zm149.68-3a7.49,7.49,0,0,1-.69-14.95q14.63-1.37,29.71-3a7.49,7.49,0,1,1,1.65,14.89c-10.12,1.12-20.13,2.15-30,3.07Zm-208.22-9a7.46,7.46,0,0,1-2.4-.4,300.82,300.82,0,0,1-28.58-11.22,7.49,7.49,0,0,1,6.23-13.62,284.62,284.62,0,0,0,27.15,10.65,7.49,7.49,0,0,1-2.4,14.59ZM3754,2864a7.49,7.49,0,0,1-1.12-14.89q14.73-2.23,29.57-4.63a7.49,7.49,0,1,1,2.38,14.78q-14.89,2.41-29.71,4.66A8.56,8.56,0,0,1,3754,2864Zm59.19-9.56a7.49,7.49,0,0,1-1.25-14.87q14.76-2.54,29.51-5.19a7.49,7.49,0,0,1,2.65,14.75q-14.8,2.65-29.63,5.2A8,8,0,0,1,3813.17,2854.39Zm-131.78-9.55a7.47,7.47,0,0,1-5.62-2.53c-6.5-7.38-13.33-14.48-20.29-21.11a7.49,7.49,0,0,1,10.33-10.85c7.28,6.93,14.41,14.35,21.19,22.05a7.48,7.48,0,0,1-5.61,12.44Zm-308.69-.53a7.45,7.45,0,0,1-4.25-1.32c-10.18-7-18.09-14.55-23.51-22.4a7.49,7.49,0,0,1,12.33-8.51c4.38,6.35,11,12.59,19.68,18.58a7.49,7.49,0,0,1-4.25,13.65Zm499.56-.54a7.49,7.49,0,0,1-1.38-14.85q14.77-2.77,29.41-5.63a7.49,7.49,0,1,1,2.87,14.7q-14.67,2.88-29.51,5.65A8.36,8.36,0,0,1,3872.26,2843.77Zm58.88-11.48a7.49,7.49,0,0,1-1.48-14.83q14.82-3,29.35-6a7.48,7.48,0,1,1,3.06,14.65q-14.57,3-29.44,6A7.61,7.61,0,0,1,3931.14,2832.29Zm58.75-12.22a7.48,7.48,0,0,1-1.57-14.8c9.92-2.13,19.7-4.25,29.28-6.36a7.49,7.49,0,0,1,3.22,14.63q-14.43,3.16-29.35,6.37A7.84,7.84,0,0,1,3989.89,2820.07Zm58.6-12.88a7.49,7.49,0,0,1-1.63-14.8l29.22-6.66a7.49,7.49,0,1,1,3.36,14.6l-29.29,6.68A7.88,7.88,0,0,1,4048.49,2807.19Zm-410.43-3.56a7.42,7.42,0,0,1-4.63-1.62c-7.67-6.07-15.67-11.79-23.76-17a7.49,7.49,0,0,1,8.12-12.59c8.49,5.47,16.88,11.48,24.93,17.85a7.49,7.49,0,0,1-4.66,13.36Zm-293.89-8.06a8.5,8.5,0,0,1-1.41-.13,7.5,7.5,0,0,1-6-8.76c2-10.51,8-20.31,17.92-29.13a7.49,7.49,0,1,1,10,11.18c-7.36,6.57-11.8,13.55-13.16,20.75A7.49,7.49,0,0,1,3344.17,2795.57ZM4107,2793.7a7.49,7.49,0,0,1-1.71-14.78l29.16-7a7.49,7.49,0,0,1,3.51,14.57l-29.24,7A7.75,7.75,0,0,1,4107,2793.7Zm58.38-14.07a7.49,7.49,0,0,1-1.79-14.76l29.12-7.26a7.49,7.49,0,0,1,3.65,14.53l-29.18,7.27A7.45,7.45,0,0,1,4165.37,2779.63Zm-577.58-8.38a7.56,7.56,0,0,1-3.4-.82,284.11,284.11,0,0,0-26.61-11.94,7.49,7.49,0,0,1,5.41-14,301.5,301.5,0,0,1,28,12.57,7.49,7.49,0,0,1-3.42,14.16Zm635.84-6.31a7.48,7.48,0,0,1-1.87-14.73c8.49-2.2,14.78-3.85,18.55-4.85l.11-.41,4.68-.85c.08,0,2.3-.42,6.26-1.28a7.49,7.49,0,1,1,3.16,14.64c-4.31.93-6.72,1.37-6.72,1.37l0-.21c-3.84,1.33-10.48,3-22.27,6.08A7.06,7.06,0,0,1,4223.63,2764.94ZM3385,2754.87a7.49,7.49,0,0,1-3-14.33,165.58,165.58,0,0,1,29.78-9.77,7.49,7.49,0,1,1,3.38,14.59,151,151,0,0,0-27.09,8.87A7.43,7.43,0,0,1,3385,2754.87Zm897.08-4.56a7.48,7.48,0,0,1-2-14.69c8.44-2.38,18-5.3,28.27-8.82a7.48,7.48,0,1,1,4.87,14.15c-10.56,3.63-20.4,6.64-29.07,9.09A7.58,7.58,0,0,1,4282.11,2750.31Zm-750-.65a7,7,0,0,1-2-.27,270.48,270.48,0,0,0-28.5-6.07,7.49,7.49,0,1,1,2.33-14.8,284.84,284.84,0,0,1,30.08,6.42,7.49,7.49,0,0,1-2,14.72Zm-89-8.65a7.48,7.48,0,0,1-.61-14.94,245.37,245.37,0,0,1,30.87-.6,7.47,7.47,0,0,1,7.16,7.79,7.3,7.3,0,0,1-7.79,7.17,234.93,234.93,0,0,0-29,.55A4.43,4.43,0,0,1,3443,2741Zm895.84-10.21a7.49,7.49,0,0,1-2.85-14.41c9.34-3.85,18.38-7.93,26.85-12.15a7.49,7.49,0,0,1,6.67,13.42c-8.79,4.36-18.15,8.6-27.82,12.58A7.53,7.53,0,0,1,4338.87,2730.8ZM4392.5,2704a7.48,7.48,0,0,1-3.9-13.88,271.91,271.91,0,0,0,24.1-16.41,7.49,7.49,0,1,1,9.11,11.89,285.27,285.27,0,0,1-25.43,17.31A7.43,7.43,0,0,1,4392.5,2704Zm47.25-36.62a7.48,7.48,0,0,1-5.33-12.74,161.18,161.18,0,0,0,18.22-22,7.49,7.49,0,0,1,12.37,8.44,174.37,174.37,0,0,1-19.92,24.06A7.47,7.47,0,0,1,4439.75,2667.4Zm-279-32.91a7.47,7.47,0,0,1-6.3-3.42c-5.31-8.22-10.72-16.7-16.15-25.37a7.48,7.48,0,1,1,12.67-8q8.13,12.93,16.06,25.2a7.49,7.49,0,0,1-6.28,11.55Zm312.2-16.42a7.34,7.34,0,0,1-2.77-.54,7.47,7.47,0,0,1-4.18-9.72,116.39,116.39,0,0,0,7.16-27.06,7.49,7.49,0,0,1,14.84,2.06,131.43,131.43,0,0,1-8.09,30.54A7.49,7.49,0,0,1,4472.93,2618.07Zm-344.07-34.35a7.47,7.47,0,0,1-6.4-3.6q-7.74-12.72-15.45-25.82a7.49,7.49,0,0,1,12.92-7.59q7.62,13,15.32,25.63a7.48,7.48,0,0,1-6.39,11.38Zm352.48-24.31a7.49,7.49,0,0,1-7.46-7,201.19,201.19,0,0,0-4.13-28.57,7.49,7.49,0,0,1,14.64-3.15,216.48,216.48,0,0,1,4.43,30.68,7.48,7.48,0,0,1-6.95,8ZM4098.51,2532a7.5,7.5,0,0,1-6.53-3.81c-4.93-8.75-9.8-17.56-14.54-26.39a7.49,7.49,0,1,1,13.19-7.09q7.05,13.11,14.4,26.12a7.48,7.48,0,0,1-2.85,10.2A7.39,7.39,0,0,1,4098.51,2532ZM4469,2501a7.49,7.49,0,0,1-7.08-5,279.19,279.19,0,0,0-11-27,7.49,7.49,0,0,1,13.58-6.33,295.8,295.8,0,0,1,11.54,28.48A7.49,7.49,0,0,1,4469,2501Zm-398.83-21.74a7.49,7.49,0,0,1-6.69-4.09q-6.9-13.6-13.29-27.1a7.49,7.49,0,0,1,13.54-6.39q6.27,13.27,13.11,26.7a7.49,7.49,0,0,1-6.67,10.88Zm373.6-32.5a7.47,7.47,0,0,1-6.45-3.67c-5-8.41-10.4-16.61-16.12-24.38a7.49,7.49,0,0,1,12.07-8.88c6,8.17,11.7,16.79,16.93,25.62a7.49,7.49,0,0,1-6.43,11.31ZM4044.6,2425a7.5,7.5,0,0,1-6.89-4.52q-6.12-14.28-11.37-28.09a7.49,7.49,0,1,1,14-5.3q5.1,13.5,11.13,27.46a7.51,7.51,0,0,1-3.92,9.85A7.79,7.79,0,0,1,4044.6,2425Zm363.65-26.45a7.46,7.46,0,0,1-5.53-2.44,240.94,240.94,0,0,0-20.81-20.25,7.49,7.49,0,0,1,9.75-11.37,256.66,256.66,0,0,1,22.12,21.52,7.49,7.49,0,0,1-5.53,12.54ZM4244.67,2379l-5.26-14.56q-3-8.43-6.69-16.77a7.49,7.49,0,0,1,13.74-6c.73,1.71,1.47,3.41,2.18,5.12a7.49,7.49,0,0,1,10.21,10.86,60.35,60.35,0,0,0-6,8.18Zm-221.1-10.1a7.48,7.48,0,0,1-7.15-5.28c-3.2-10.35-5.85-20.31-7.83-29.59a7.49,7.49,0,0,1,14.64-3.15c1.9,8.85,4.42,18.38,7.49,28.33a7.48,7.48,0,0,1-4.94,9.36A7.69,7.69,0,0,1,4023.57,2368.9Zm339.17-9.08a7.49,7.49,0,0,1-4-1.15c-1.82-1.15-3.65-2.26-5.49-3.31a140.78,140.78,0,0,0-19.86-9.57,7.49,7.49,0,1,1,5.37-14,156.67,156.67,0,0,1,21.95,10.56c2,1.14,4,2.37,6,3.63a7.49,7.49,0,0,1-4,13.82Zm-85.19-16.51a7.49,7.49,0,0,1-2.62-14.51,77.09,77.09,0,0,1,32.64-4.29,7.49,7.49,0,0,1-1.08,14.94,62.21,62.21,0,0,0-26.32,3.39A7.51,7.51,0,0,1,4277.55,2343.31Zm-51.3-17.95a7.5,7.5,0,0,1-6.54-3.83c-4.74-8.46-10-16.8-15.52-24.77a7.49,7.49,0,0,1,12.29-8.56c5.83,8.37,11.31,17.12,16.29,26a7.49,7.49,0,0,1-6.52,11.16Zm-214.75-15a7.48,7.48,0,0,1-7.46-7c-.26-3.75-.4-7.42-.4-11a155.74,155.74,0,0,1,1.29-20.4,7.48,7.48,0,0,1,14.84,2,143.28,143.28,0,0,0-1.15,18.44c0,3.24.12,6.55.36,10a7.49,7.49,0,0,1-6.95,8Zm180.46-34a7.44,7.44,0,0,1-5.66-2.59,255.65,255.65,0,0,0-20.24-20.87,7.49,7.49,0,0,1,10.12-11,266.72,266.72,0,0,1,21.44,22.13,7.48,7.48,0,0,1-5.66,12.38Zm-171.87-24.68a7.48,7.48,0,0,1-6.85-10.5,78.23,78.23,0,0,1,18.93-26.85,7.49,7.49,0,1,1,10,11.11,63.25,63.25,0,0,0-15.27,21.77A7.47,7.47,0,0,1,4020.09,2251.63Zm127.61-15.46a7.55,7.55,0,0,1-4.23-1.31q-5.58-3.84-11.3-7.15a147.52,147.52,0,0,0-13.55-6.94,7.49,7.49,0,1,1,6.12-13.67,160,160,0,0,1,14.92,7.65q6.21,3.59,12.28,7.75a7.49,7.49,0,0,1-4.24,13.67Zm-84.31-22.66a7.49,7.49,0,0,1-1.76-14.77,83.67,83.67,0,0,1,32.67-1,7.49,7.49,0,0,1-2.34,14.79,68.39,68.39,0,0,0-26.79.73A7.86,7.86,0,0,1,4063.39,2213.51Z"/><path class="cls-39" d="M4166,2642.59a7.48,7.48,0,0,1-6.28-3.4c-71.19-109.31-156-258.2-156-346.82,0-40.86,14.21-71.58,40-86.47,26-15,60.13-11.87,96,8.85,48,27.69,91.6,83.1,113.84,144.6a7.49,7.49,0,0,1-14.09,5.09c-21.09-58.33-62.18-110.72-107.23-136.72-31.09-17.95-59.85-21.09-81-8.85-21,12.11-32.53,38.21-32.53,73.5,0,84.94,83.53,231,153.62,338.64a7.5,7.5,0,0,1-6.27,11.58Z"/><path class="cls-40" d="M4154.25,3509.14a7.43,7.43,0,0,1-3.29-.76c-128.54-62.88-329.57-253.6-372.72-448.16-54.18-244.33-209.17-324.9-326.09-319.78-54.09,2.42-97.46,24.14-100.89,50.55-3.13,24.08,29.14,49.11,86.32,67a7.48,7.48,0,1,1-4.46,14.29c-89.9-28.09-99.18-64.19-96.71-83.21,4.5-34.61,51.82-60.76,115.08-63.58,122.28-5.33,285.18,78.1,341.38,331.49,42.12,190,238.85,376.4,364.67,438a7.49,7.49,0,0,1-3.29,14.22Z"/><path class="cls-41" d="M4154.25,3509.14a7.43,7.43,0,0,1-3.29-.76c-128.54-62.88-329.57-253.6-372.72-448.16-54.18-244.33-209.17-324.9-326.09-319.78-54.09,2.42-97.46,24.14-100.89,50.55-3.13,24.08,29.14,49.11,86.32,67a7.48,7.48,0,1,1-4.46,14.29c-89.9-28.09-99.18-64.19-96.71-83.21,4.5-34.61,51.82-60.76,115.08-63.58,122.28-5.33,285.18,78.1,341.38,331.49,42.12,190,238.85,376.4,364.67,438a7.49,7.49,0,0,1-3.29,14.22Z"/><g class="cls-42"><polygon class="cls-43" points="3055.89 1115.58 3055.89 914.91 675.25 2277.76 675.25 2476.66 3055.89 1115.58"/><polygon class="cls-44" points="3055.89 1534.68 3055.89 1334 675.25 2696.85 675.25 2895.75 3055.89 1534.68"/><polygon class="cls-45" points="663.17 3975.39 681.04 3964.22 681.04 1835.59 663.17 1844.91 663.17 3975.39"/><g class="cls-46"><polygon class="cls-47" points="1106.31 1728.14 1106.31 1684.8 746.65 1891.48 746.65 1934.44 1106.31 1728.14"/><polygon class="cls-47" points="1044.23 1973.89 1044.23 1930.55 746.65 2103.32 746.65 2146.28 1044.23 1973.89"/><polygon class="cls-48" points="1106.31 2151.84 1106.31 2108.49 746.65 2315.17 746.65 2358.13 1106.31 2151.84"/><polygon class="cls-47" points="1044.23 2397.58 1044.23 2354.24 746.65 2527.01 746.65 2569.97 1044.23 2397.58"/><polygon class="cls-48" points="969.72 2649.16 969.72 2605.82 746.65 2738.86 746.65 2781.82 969.72 2649.16"/><polygon class="cls-47" points="1044.23 2821.27 1044.23 2777.93 746.65 2950.7 746.65 2993.66 1044.23 2821.27"/><polygon class="cls-47" points="1000.76 3056.71 1000.76 3013.36 746.65 3162.55 746.65 3205.51 1000.76 3056.71"/><polygon class="cls-47" points="944.89 3301.09 944.89 3257.74 746.65 3374.39 746.65 3417.36 944.89 3301.09"/><polygon class="cls-47" points="1044.23 3456.81 1044.23 3413.46 746.65 3586.24 746.65 3629.2 1044.23 3456.81"/><polygon class="cls-47" points="1000.76 3692.24 1000.76 3648.9 746.65 3798.08 746.65 3841.04 1000.76 3692.24"/><polygon class="cls-47" points="2348.52 1023.23 2348.52 979.89 1140.23 1663.42 1140.23 1706.38 2348.52 1023.23"/><polygon class="cls-47" points="2286.44 1268.98 2286.44 1225.63 1140.23 1875.27 1140.23 1918.23 2286.44 1268.98"/><polygon class="cls-47" points="2348.52 1446.92 2348.52 1403.58 1140.23 2087.11 1140.23 2130.07 2348.52 1446.92"/><polygon class="cls-47" points="2286.44 1692.67 2286.44 1649.32 1140.23 2298.96 1140.23 2341.92 2286.44 1692.67"/><polygon class="cls-48" points="2211.93 1944.25 2211.93 1900.91 1140.23 2510.8 1140.23 2553.76 2211.93 1944.25"/><polygon class="cls-47" points="2286.44 2116.36 2286.44 2073.01 1140.23 2722.65 1140.23 2765.61 2286.44 2116.36"/><polygon class="cls-47" points="2242.97 2351.8 2242.97 2308.45 1140.23 2934.49 1140.23 2977.45 2242.97 2351.8"/><polygon class="cls-47" points="2348.52 2506.15 2348.52 2462.8 1140.23 3146.34 1140.23 3189.3 2348.52 2506.15"/><polygon class="cls-47" points="2286.44 2751.89 2286.44 2708.55 1140.23 3358.18 1140.23 3401.14 2286.44 2751.89"/><polygon class="cls-47" points="2242.97 2987.33 2242.97 2943.99 1140.23 3570.03 1140.23 3612.99 2242.97 2987.33"/></g><g class="cls-49"><path class="cls-50" d="M543.39,2033.26l-166.88,96.35c-10.24,5.91-18.54,20.23-18.54,32v113c0,11.75,8.3,16.49,18.54,10.57l166.88-96.35c10.24-5.91,18.54-20.23,18.54-32v-113C561.93,2032.08,553.63,2027.35,543.39,2033.26Zm9.76,140.6-65.79-25L460,2195s-12-6.36-27.35-14.57l-65.85,101.09c-.1,0,53.88-94.93,59.35-104.55-27.17-14.49-60.8-32.43-60.74-32.52l94.59,33s94.78-142.15,94.88-142.12l-61,102.59C499.92,2141.54,553.25,2173.73,553.15,2173.86Z"/><path class="cls-50" d="M456.89,2498l-51.3,60.57c-4.83,5.7-10.47,4.25-9.55-2.45l9.8-71.2c.37-2.66-.34-4.75-1.89-5.59l-41.5-22.46c-3.91-2.11-1.75-11,3.64-15l57.36-42.68a15.06,15.06,0,0,0,4.95-7l25.65-74.44c2.41-7,9.38-11,11.8-6.81l25.65,44.83c1,1.67,2.81,2.14,4.95,1.27l57.36-23.56c5.39-2.21,7.55,4.15,3.64,10.77L516,2414.69a12.28,12.28,0,0,0-1.89,7.77l9.79,59.89c.93,5.64-4.71,13.6-9.54,13.47l-51.3-1.33C461.09,2494.44,458.81,2495.76,456.89,2498Z"/><path class="cls-50" d="M460,2631c-56.23,32.47-102,111.38-102,175.91s45.75,90.61,102,58.14,102-111.38,102-175.9S516.18,2598.48,460,2631ZM390.7,2794.28c-3.47,2-6.29.4-6.29-3.59a13.89,13.89,0,0,1,6.29-10.86c3.48-2,6.3-.4,6.3,3.59A13.87,13.87,0,0,1,390.7,2794.28ZM460,2833.76c-3.47,2-6.29.4-6.29-3.59a13.89,13.89,0,0,1,6.29-10.86c3.48-2,6.3-.4,6.3,3.59A13.87,13.87,0,0,1,460,2833.76Zm38.9-63.87a15.44,15.44,0,0,1-5.3,5.55c-1.95,1.13-3.9,1.38-5.38.52l-32.47-19.1c-2.12-1.24-3.31-3.88-3.31-7.34v-84.26c0-4.78,3.39-10.62,7.56-13s7.56-.48,7.56,4.31v82.56l31.43,18.48C501.86,2759.3,501.83,2764.81,498.85,2769.89Zm30.35-55.57c-3.48,2-6.3.4-6.3-3.59a13.86,13.86,0,0,1,6.3-10.86c3.47-2,6.29-.4,6.29,3.59A13.89,13.89,0,0,1,529.2,2714.32Z"/><path class="cls-50" d="M460,2956.83c-45.28,26.15-82,89.46-82,141.42,0,49.64,33.52,70.84,76,49.86v46.24l35.51-72.77c30.68-31.32,52.48-78,52.48-118C541.94,2951.62,505.23,2930.69,460,2956.83Zm-32.42,122.55c-5,8.59-13,13.25-18,10.41s-5-12.1,0-20.69,13-13.25,18-10.41S432.51,3070.79,427.53,3079.38ZM469,3055.46c-5,8.59-13,13.25-18,10.41s-5-12.1,0-20.69,13.05-13.25,18-10.41S473.94,3046.87,469,3055.46Zm41.44-23.92c-5,8.59-13,13.25-18,10.41s-5-12.1,0-20.69,13.05-13.25,18-10.41S515.37,3023,510.4,3031.54Z"/><polygon class="cls-50" points="466.32 3684.92 479.07 3794.59 561.93 3520.01 357.97 3732.86 466.32 3684.92"/><path class="cls-50" d="M525,3265.62l-47.27-26.95c-7.32-4.17-17.24-3.16-27.58,2.81L383.46,3280v234.05l153-88.32V3290.67C536.44,3278.8,532.33,3269.79,525,3265.62Zm-14.08,116.32-102,58.88v-14.63l102-58.88Zm0-29.26-102,58.88v-14.63l102-58.88Zm0-29.26L409,3382.3v-14.63l102-58.88Zm-38.24-21.8v-45.14L512,3278.91Z"/></g></g><polygon class="cls-51" points="5142.98 2766.05 4684.61 2910.44 4967.01 3159.78 5473.22 2725.76 5142.98 2766.05"/><polygon class="cls-52" points="5582.87 2631.73 4775.28 3012.86 4788.71 2950.74 4704.76 2902.05 5582.87 2631.73"/><polygon class="cls-53" points="5582.87 2631.73 4981.79 3063.23 5087.57 3182.44 5206.26 3184.97 5582.87 2631.73"/><polygon class="cls-54" points="5582.87 2631.73 5122.83 2847.9 5166.48 2988.52 5582.87 2631.73"/><polygon class="cls-55" points="5582.87 2631.73 5122.83 2847.9 5166.48 2988.52 5582.87 2631.73"/><polygon class="cls-56" points="5582.87 2631.73 5122.83 2847.9 5046.23 2853.15 5000.89 2811.17 5582.87 2631.73"/><polygon class="cls-57" points="5582.87 2631.73 5210.14 2898.69 5166.48 2988.52 5582.87 2631.73"/><polygon class="cls-58" points="5582.87 2631.73 5210.14 2898.69 5166.48 2988.52 5582.87 2631.73"/><polygon class="cls-59" points="5582.87 2631.73 5210.14 2898.69 5268.27 2962.7 5339.63 2988.73 5582.87 2631.73"/><polygon class="cls-31" points="5339.63 2988.73 5268.27 2962.7 5210.14 2898.69 5166.48 2988.52 5122.83 2847.9 5046.23 2853.15 5000.89 2811.17 5047.9 2851.89 5124.14 2847.38 5166.9 2982.64 5210.14 2898.69 5268.48 2959.97 5339.63 2988.73"/><path class="cls-4" d="M1152.06,2056.7l-1.08.62L2084.85,591c44.61-70.07,110.8-108.29,155.44-89.8L3175,888.75l-1.07.62c10.58,4.86,17.35,16.65,17.35,34.3v1449c0,33.09-23.37,73.41-52.21,90.05L1186.91,3589.8c-28.84,16.64-52.21,3.32-52.21-29.77V2111C1134.7,2093.39,1141.47,2073.77,1152.06,2056.7Z"/><path class="cls-60" d="M1165.8,2043.62l-1.07.62L2098.6,577.94c44.61-70.06,110.8-108.29,155.44-89.79l934.71,387.52-1.07.62c10.58,4.85,17.35,16.65,17.35,34.3v1449c0,33.09-23.37,73.4-52.21,90.05L1200.66,3576.71c-28.84,16.65-52.21,3.33-52.21-29.76V2098C1148.45,2080.31,1155.22,2060.69,1165.8,2043.62Z"/><path class="cls-61" d="M1179.55,2030.54l-1.08.62,933.87-1466.3c44.62-70.07,110.81-108.29,155.44-89.79L3202.5,862.59l-1.08.62c10.59,4.85,17.36,16.65,17.36,34.29v1449c0,33.1-23.38,73.41-52.21,90.06L1214.41,3563.63c-28.84,16.65-52.21,3.32-52.21-29.77v-1449C1162.2,2067.22,1169,2047.61,1179.55,2030.54Z"/><path class="cls-62" d="M1193.3,2017.45l-1.08.63,933.87-1466.3c44.62-70.07,110.81-108.29,155.44-89.79L3216.25,849.5l-1.08.62c10.58,4.86,17.35,16.65,17.35,34.3v1449c0,33.09-23.37,73.41-52.2,90.05L1228.15,3550.55c-28.83,16.65-52.21,3.32-52.21-29.77v-1449C1175.94,2054.14,1182.72,2034.53,1193.3,2017.45Z"/><path class="cls-63" d="M1207.05,2004.37l-1.08.62,933.87-1466.3c44.62-70.06,110.8-108.29,155.44-89.79L3230,836.42l-1.07.62c10.58,4.86,17.35,16.65,17.35,34.3v1449c0,33.09-23.37,73.4-52.2,90.05L1241.9,3537.46c-28.84,16.65-52.21,3.33-52.21-29.76v-1449C1189.69,2041.06,1196.47,2021.44,1207.05,2004.37Z"/><path class="cls-64" d="M1220.8,1991.29l-1.08.62,933.87-1466.3c44.62-70.06,110.8-108.29,155.44-89.79l934.71,387.52-1.07.62c10.58,4.85,17.35,16.65,17.35,34.3v1449c0,33.1-23.37,73.41-52.21,90.06L1255.65,3524.38c-28.84,16.65-52.21,3.32-52.21-29.77v-1449C1203.44,2028,1210.21,2008.36,1220.8,1991.29Z"/><path class="cls-65" d="M1234.54,1978.2l-1.07.63,933.87-1466.3c44.61-70.07,110.8-108.29,155.44-89.79l934.71,387.52-1.07.62c10.58,4.85,17.35,16.64,17.35,34.29v1449c0,33.09-23.37,73.41-52.21,90.06L1269.4,3511.3c-28.84,16.65-52.21,3.32-52.21-29.77v-1449C1217.19,2014.89,1224,1995.28,1234.54,1978.2Z"/><path class="cls-66" d="M1248.29,1965.12l-1.07.62,933.86-1466.3c44.62-70.06,110.81-108.28,155.45-89.79l934.71,387.52-1.08.62c10.59,4.86,17.36,16.65,17.36,34.3v1449c0,33.09-23.38,73.41-52.21,90.05L1283.15,3498.22c-28.84,16.64-52.21,3.32-52.21-29.77v-1449C1230.94,2001.81,1237.71,1982.19,1248.29,1965.12Z"/><path class="cls-67" d="M1262,1952l-1.08.62,933.87-1466.3c44.62-70.06,110.81-108.29,155.44-89.79L3285,784.09l-1.08.62c10.58,4.85,17.36,16.65,17.36,34.3V2268c0,33.09-23.38,73.4-52.21,90.05L1296.89,3485.13c-28.83,16.65-52.21,3.33-52.21-29.76v-1449C1244.68,1988.73,1251.46,1969.11,1262,1952Z"/><path class="cls-68" d="M1275.79,1939l-1.08.62,933.87-1466.3C2253.2,403.21,2319.39,365,2364,383.49L3298.73,771l-1.07.62c10.58,4.85,17.35,16.65,17.35,34.29v1449c0,33.1-23.37,73.41-52.2,90.06L1310.64,3472.05c-28.84,16.65-52.21,3.32-52.21-29.77v-1449C1258.43,1975.64,1265.21,1956,1275.79,1939Z"/><path class="cls-69" d="M1289.54,1925.87l-1.08.63L2222.33,460.2c44.62-70.07,110.8-108.29,155.44-89.79l934.71,387.51-1.07.62c10.58,4.86,17.35,16.65,17.35,34.3v1449c0,33.09-23.37,73.41-52.2,90.05L1324.39,3459c-28.84,16.64-52.21,3.32-52.21-29.77v-1449C1272.18,1962.56,1279,1943,1289.54,1925.87Z"/><path class="cls-70" d="M1303.28,1912.79l-1.07.62,933.87-1466.3c44.61-70.06,110.8-108.29,155.44-89.79l934.71,387.52-1.07.62c10.58,4.86,17.35,16.65,17.35,34.3v1449c0,33.09-23.37,73.4-52.21,90.05L1338.14,3445.88c-28.84,16.65-52.21,3.33-52.21-29.76v-1449C1285.93,1949.48,1292.7,1929.86,1303.28,1912.79Z"/><path class="cls-30" d="M1317,1899.71l-1.07.62L2249.82,434c44.62-70.06,110.81-108.29,155.45-89.79L3340,731.76l-1.07.62c10.58,4.85,17.35,16.65,17.35,34.3v1449c0,33.1-23.37,73.41-52.21,90.06L1351.89,3432.8c-28.84,16.65-52.21,3.32-52.21-29.77V1954C1299.68,1936.39,1306.45,1916.78,1317,1899.71Z"/><path class="cls-71" d="M1330.78,1886.62l-1.08.63L2263.57,421c44.62-70.07,110.81-108.29,155.44-89.79l934.72,387.52-1.08.62c10.59,4.85,17.36,16.64,17.36,34.29v1449c0,33.09-23.38,73.41-52.21,90.06L1365.63,3419.72c-28.83,16.65-52.21,3.32-52.21-29.77V1941C1313.42,1923.31,1320.2,1903.7,1330.78,1886.62Z"/><path class="cls-72" d="M1344.53,1873.54l-1.08.62,933.87-1466.3c44.62-70.06,110.81-108.28,155.44-89.79l934.71,387.52-1.07.62c10.58,4.86,17.35,16.65,17.35,34.3v1449c0,33.09-23.37,73.41-52.2,90.05L1379.38,3406.64c-28.83,16.64-52.21,3.32-52.21-29.77v-1449C1327.17,1910.23,1334,1890.61,1344.53,1873.54Z"/><path class="cls-73" d="M1358.28,1860.46l-1.08.62,933.87-1466.3c44.62-70.06,110.8-108.29,155.44-89.79l934.71,387.52-1.07.62c10.58,4.85,17.35,16.65,17.35,34.3v1449c0,33.09-23.37,73.4-52.2,90L1393.13,3393.55c-28.84,16.65-52.21,3.33-52.21-29.76v-1449C1340.92,1897.15,1347.7,1877.53,1358.28,1860.46Z"/><path class="cls-74" d="M1372,1847.38l-1.08.62L2304.82,381.7c44.61-70.07,110.8-108.29,155.44-89.79L3395,679.43l-1.07.62c10.58,4.85,17.35,16.65,17.35,34.29v1449c0,33.09-23.37,73.41-52.21,90.06L1406.88,3380.47c-28.84,16.65-52.21,3.32-52.21-29.77v-1449C1354.67,1884.06,1361.44,1864.45,1372,1847.38Z"/><path class="cls-75" d="M1385.77,1834.29l-1.07.63,933.87-1466.3c44.61-70.07,110.8-108.29,155.44-89.79l934.71,387.51-1.07.62c10.58,4.86,17.35,16.65,17.35,34.3v1449c0,33.09-23.37,73.41-52.21,90.05L1420.63,3367.39c-28.84,16.64-52.21,3.32-52.21-29.77v-1449C1368.42,1871,1375.19,1851.37,1385.77,1834.29Z"/><path class="cls-76" d="M1399.52,1821.21l-1.08.62,933.87-1466.3c44.62-70.06,110.81-108.29,155.44-89.79l934.72,387.52-1.08.62c10.59,4.86,17.36,16.65,17.36,34.3v1449c0,33.09-23.38,73.4-52.21,90L1434.38,3354.3c-28.84,16.65-52.21,3.33-52.21-29.76v-1449C1382.17,1857.9,1388.94,1838.28,1399.52,1821.21Z"/><path class="cls-77" d="M1413.27,1808.13l-1.08.62,933.87-1466.3c44.62-70.07,110.81-108.29,155.44-89.79l934.72,387.52-1.08.62c10.58,4.85,17.35,16.65,17.35,34.3v1449c0,33.1-23.37,73.41-52.2,90.06L1448.12,3341.22c-28.83,16.65-52.21,3.32-52.21-29.77v-1449C1395.91,1844.81,1402.69,1825.2,1413.27,1808.13Z"/><path class="cls-78" d="M1427,1795l-1.08.63,933.87-1466.3c44.62-70.07,110.8-108.29,155.44-89.79L3450,627.09l-1.07.63c10.58,4.85,17.35,16.64,17.35,34.29V2111c0,33.09-23.37,73.41-52.2,90.05L1461.87,3328.14c-28.84,16.65-52.21,3.32-52.21-29.77v-1449C1409.66,1831.73,1416.44,1812.12,1427,1795Z"/><path class="cls-79" d="M1440.77,1782l-1.08.62,933.87-1466.3c44.62-70.06,110.8-108.28,155.44-89.79L3463.71,614l-1.07.62c10.58,4.86,17.35,16.65,17.35,34.3v1449c0,33.09-23.37,73.41-52.21,90L1475.62,3315.05c-28.84,16.65-52.21,3.33-52.21-29.76v-1449C1423.41,1818.65,1430.18,1799,1440.77,1782Z"/><path class="cls-80" d="M1446.36,1781.59l-1.07.62,933.86-1466.3c44.62-70.06,110.81-108.29,155.45-89.79l934.71,387.52-1.07.62c10.58,4.85,17.35,16.65,17.35,34.3v1449c0,33.09-23.37,73.4-52.21,90L1481.22,3314.68c-28.84,16.65-52.21,3.33-52.21-29.76v-1449C1429,1818.28,1435.78,1798.66,1446.36,1781.59Z"/><polygon class="cls-79" points="1673.71 3091.77 3200.06 2210.53 3200.06 443.4 1673.71 1324.64 1673.71 3091.77"/><path class="cls-81" d="M1449.42,3313.49v-1449c0-17.65,6.77-37.27,17.35-54.33l-1.07.62,933.87-1466.3c44.62-70.07,110.8-108.29,155.44-89.79l929.73,385.45c-1.87-12.89-7.76-21.88-16.5-25.89l1.07-.62L2534.6,226.12c-44.64-18.49-110.83,19.73-155.45,89.79l-933.87,1466.3,1.08-.62c-10.58,17.07-17.35,36.69-17.35,54.34v1449c0,19.63,8.34,32.08,21.06,35.67A58.49,58.49,0,0,1,1449.42,3313.49Z"/><polygon class="cls-82" points="1694.12 3112.18 3220.47 2230.94 3220.47 463.81 1694.12 1345.05 1694.12 3112.18"/><polygon class="cls-83" points="2298.36 1916.95 2420.3 1847.13 2420.3 1883.14 2298.36 1952.96 2298.36 1916.95"/><polygon class="cls-84" points="2349.33 1621.68 2228.03 1691.71 2228.03 1655.7 2349.33 1585.66 2349.33 1621.68"/><polygon class="cls-85" points="2342.84 1813.84 2342.84 1849.86 2207.39 1926.65 2207.39 1890.64 2342.84 1813.84"/><polygon class="cls-86" points="2200.51 1784.25 2200.51 1748.24 2371.82 1648.26 2371.82 1684.27 2200.51 1784.25"/><polygon class="cls-87" points="2096.43 1730.57 2096.43 1766.57 1984.49 1829.91 1984.49 1793.9 2096.43 1730.57"/><polygon class="cls-88" points="2503.77 1608.08 2407.81 1663.49 2407.81 1627.48 2503.77 1572.07 2503.77 1608.08"/><polygon class="cls-89" points="2263.37 1820.82 2263.37 1784.82 2320.34 1752.36 2320.34 1788.36 2263.37 1820.82"/><polygon class="cls-90" points="2456.29 1862.54 2456.29 1826.53 2487.28 1808.52 2487.28 1844.53 2456.29 1862.54"/><polygon class="cls-91" points="2227.38 1805.31 2227.38 1841.32 2111.43 1907.38 2111.43 1871.37 2227.38 1805.31"/><polygon class="cls-92" points="2378.82 1829.25 2378.82 1793.24 2503.46 1721.06 2503.46 1757.08 2378.82 1829.25"/><polygon class="cls-93" points="2165.05 1768.7 2165.05 1804.71 2019.47 1886.2 2019.47 1850.19 2165.05 1768.7"/><polygon class="cls-94" points="2054.45 2092.59 2054.45 2056.59 2168.41 1991.35 2168.41 2027.36 2054.45 2092.59"/><polygon class="cls-95" points="2262.37 1973.57 2204.39 2006.76 2204.39 1970.75 2262.37 1937.56 2262.37 1973.57"/><polygon class="cls-96" points="2192.59 1712.17 2132.42 1746.21 2132.42 1710.21 2192.59 1676.17 2192.59 1712.17"/><polygon class="cls-97" points="2713.09 1450.21 2775.66 1414.44 2775.66 1450.45 2713.09 1486.22 2713.09 1450.21"/><polygon class="cls-98" points="1948.5 1850.27 1893.52 1881.87 1893.52 1845.86 1948.5 1814.26 1948.5 1850.27"/><polygon class="cls-99" points="1781.07 2243.84 1781.07 2207.83 2025.47 2068.54 2025.47 2104.56 1781.07 2243.84"/><polygon class="cls-100" points="2680.93 1734.46 2680.93 1698.44 2925.33 1559.16 2925.33 1595.17 2680.93 1734.46"/><polygon class="cls-101" points="2553.74 1619.12 2611.22 1585.61 2611.22 1621.62 2553.74 1655.13 2553.74 1619.12"/><polygon class="cls-102" points="2539.44 1700.46 2795.98 1556.02 2795.98 1592.04 2539.44 1736.47 2539.44 1700.46"/><polygon class="cls-103" points="2356.33 1731.86 2518.29 1639.59 2518.29 1675.6 2356.33 1767.87 2356.33 1731.86"/><polygon class="cls-104" points="2523.26 1823.93 2523.26 1787.92 2652.21 1714.1 2652.21 1750.1 2523.26 1823.93"/><polygon class="cls-105" points="1983.48 1906.34 1893.52 1956.69 1893.52 1920.68 1983.48 1870.33 1983.48 1906.34"/><polygon class="cls-106" points="2677.64 1506.69 2539.75 1587.31 2539.75 1551.3 2677.64 1470.68 2677.64 1506.69"/><polygon class="cls-107" points="2075.44 1927.88 1893.52 2031.52 1893.52 1995.51 2075.44 1891.87 2075.44 1927.88"/><polygon class="cls-108" points="2853.72 1447.91 2911.2 1414.4 2911.2 1450.41 2853.72 1483.91 2853.72 1447.91"/><polygon class="cls-109" points="2656.31 1560.64 2818.26 1468.38 2818.26 1504.39 2656.31 1596.65 2656.31 1560.64"/><polygon class="cls-110" points="1928.29 1738.62 1811.06 1805.67 1811.06 1769.66 1928.29 1702.61 1928.29 1738.62"/><polygon class="cls-21" points="1992.98 1440.65 1811.06 1544.28 1811.06 1508.28 1992.98 1404.64 1992.98 1440.65"/><polygon class="cls-21" points="2054.16 1508.3 1811.06 1647.13 1811.06 1611.12 2054.16 1472.29 2054.16 1508.3"/><polygon class="cls-111" points="2171.4 1947.26 1893.52 2106.35 1893.52 2070.34 2171.4 1911.24 2171.4 1947.26"/><polygon class="cls-112" points="2298.36 2299.39 2420.3 2229.57 2420.3 2265.59 2298.36 2335.4 2298.36 2299.39"/><polygon class="cls-113" points="2349.33 2004.12 2228.03 2074.15 2228.03 2038.14 2349.33 1968.11 2349.33 2004.12"/><polygon class="cls-114" points="2342.84 2196.28 2342.84 2232.3 2207.39 2309.09 2207.39 2273.08 2342.84 2196.28"/><polygon class="cls-115" points="2200.51 2166.69 2200.51 2130.68 2269.37 2090.92 2269.37 2126.93 2200.51 2166.69"/><polygon class="cls-116" points="2096.43 2113.01 2096.43 2149.01 1984.49 2212.35 1984.49 2176.34 2096.43 2113.01"/><polygon class="cls-117" points="2401.31 2050.74 2305.35 2106.15 2305.35 2070.14 2401.31 2014.73 2401.31 2050.74"/><polygon class="cls-118" points="2263.37 2203.26 2263.37 2167.26 2320.34 2134.8 2320.34 2170.8 2263.37 2203.26"/><polygon class="cls-119" points="2456.29 2244.98 2456.29 2208.97 2487.28 2190.96 2487.28 2226.97 2456.29 2244.98"/><polygon class="cls-120" points="2227.38 2187.75 2227.38 2223.76 2111.43 2289.82 2111.43 2253.82 2227.38 2187.75"/><polygon class="cls-121" points="2378.82 2211.69 2378.82 2175.68 2549.75 2077.82 2549.75 2113.84 2378.82 2211.69"/><polygon class="cls-122" points="2165.05 2151.14 2165.05 2187.15 2019.47 2268.64 2019.47 2232.63 2165.05 2151.14"/><polygon class="cls-123" points="2192.59 2094.62 2132.42 2128.66 2132.42 2092.65 2192.59 2058.61 2192.59 2094.62"/><polygon class="cls-124" points="2517.74 1947.43 2673.2 1857.1 2673.2 1893.11 2517.74 1983.43 2517.74 1947.43"/><polygon class="cls-125" points="2370.8 1994.77 2370.8 1958.76 2615.2 1819.47 2615.2 1855.49 2370.8 1994.77"/><polygon class="cls-126" points="2553.74 2001.56 2611.22 1968.06 2611.22 2004.06 2553.74 2037.57 2553.74 2001.56"/><polygon class="cls-127" points="2585.74 2057.21 2795.98 1938.46 2795.98 1974.48 2585.74 2093.23 2585.74 2057.21"/><polygon class="cls-128" points="2356.33 2114.3 2518.29 2022.03 2518.29 2058.04 2356.33 2150.31 2356.33 2114.3"/><polygon class="cls-129" points="2523.26 2206.37 2523.26 2170.36 2652.21 2096.54 2652.21 2132.55 2523.26 2206.37"/><polygon class="cls-130" points="2482.29 2003.9 2437.3 2029.97 2437.3 1993.96 2482.29 1967.9 2482.29 2003.9"/><polygon class="cls-131" points="2646.43 1803.03 2703.91 1769.52 2703.91 1805.53 2646.43 1839.04 2646.43 1803.03"/><polygon class="cls-132" points="2656.31 1943.08 2818.26 1850.82 2818.26 1886.83 2656.31 1979.09 2656.31 1943.08"/><polygon class="cls-35" points="2350.43 1204.57 2093.87 1349.73 2093.87 1385.74 2350.43 1240.57 2350.43 1204.57"/><polygon class="cls-35" points="2378.15 1188.88 2378.15 1224.89 2572.11 1115.14 2572.11 1079.14 2378.15 1188.88"/><polygon class="cls-35" points="2279.59 1382.93 2459.7 1280.49 2459.7 1244.48 2279.59 1346.93 2279.59 1382.93"/><polygon class="cls-35" points="2549.69 1193.29 2487.42 1228.71 2487.42 1264.72 2549.69 1229.3 2549.69 1193.29"/><polygon class="cls-35" points="2736.09 1087.27 2577.4 1177.53 2577.4 1213.54 2736.09 1123.28 2736.09 1087.27"/><polygon class="cls-35" points="2918.07 983.76 2918.07 1019.77 3002.76 971.59 3002.76 935.58 2918.07 983.76"/><polygon class="cls-35" points="2890.35 999.52 2763.8 1071.51 2763.8 1107.51 2890.35 1035.54 2890.35 999.52"/><polygon class="cls-35" points="2251.88 1362.7 2093.87 1452.57 2093.87 1488.58 2251.88 1398.7 2251.88 1362.7"/><g class="cls-46"><polygon class="cls-133" points="1982.92 1671.71 1951.42 1689.61 1951.42 1725.62 1982.92 1707.72 1982.92 1671.71"/><polygon class="cls-134" points="2009.7 1656.29 2009.7 1692.3 2257.16 1552.22 2257.16 1516.21 2009.7 1656.29"/></g><polygon class="cls-135" points="1694.12 1473.6 3220.47 592.36 3220.47 463.81 1694.12 1345.05 1694.12 1473.6"/><path class="cls-136" d="M2378.58,2190.69c45.46,18.84,112.86-20.09,158.29-91.43l948.72-1429.7V2037.63c0,33.09-23.37,73.41-52.21,90L1481.22,3254.77c-28.84,16.65-52.21,3.32-52.21-29.77V1856.93Z"/><path class="cls-137" d="M2378.58,2250.61c45.46,18.84,112.86-20.09,158.29-91.43L3485.59,669.56v1428c0,33.09-23.37,73.4-52.21,90L1481.22,3314.68c-28.84,16.65-52.21,3.33-52.21-29.76v-1428Z"/><path class="cls-138" d="M1449.42,1893.66,2399,2287.34c45.46,18.85,112.86-20.08,158.29-91.42L3485.59,738.35V669.57L2536.87,2159.18c-45.43,71.34-112.83,110.27-158.29,91.43L1429,1856.92v1428c0,19.28,8.08,31.59,20.41,35.42Z"/><path class="cls-136" d="M3438.46,2186l1-.6-896.83-416.74c-42.85-17.8-106.41,18.88-149.28,86.15L1495.76,3307.61l1-.6Z"/><path class="cls-139" d="M3438.46,2186l1-.6-896.83-372.57c-42.85-17.81-106.41,18.88-149.28,86.14L1495.76,3307.61l1-.6Z"/><path class="cls-140" d="M2405.64,1920.39c42.86-67.26,106.43-104,149.28-86.14L3423,2194.9l15.43-8.91,1-.6-896.83-372.57c-42.85-17.81-106.41,18.87-149.28,86.14L1495.76,3307.61l1-.6,40-23.06Z"/><path class="cls-141" d="M4563.22,3699.42a7.31,7.31,0,0,1-3.38-.81l-13.37-6.84a7.49,7.49,0,1,1,6.86-13.31l13.28,6.8a7.48,7.48,0,0,1-3.39,14.16Z"/><path class="cls-142" d="M5215.81,4404.65a117.52,117.52,0,0,1-13.53-.79,7.47,7.47,0,0,1-6.58-8.29A7.38,7.38,0,0,1,5204,4389a104,104,0,0,0,28-.6,7.49,7.49,0,0,1,2.34,14.79A118.08,118.08,0,0,1,5215.81,4404.65Zm-41.73-8a7.45,7.45,0,0,1-2.69-.5,157.76,157.76,0,0,1-28.1-14.35,7.49,7.49,0,1,1,8.07-12.62,141.7,141.7,0,0,0,25.41,13,7.49,7.49,0,0,1-2.69,14.48Zm88-1.78a7.48,7.48,0,0,1-2.91-14.38,144.87,144.87,0,0,0,15.86-7.94q5-2.87,9.73-5.78a7.48,7.48,0,0,1,7.84,12.75q-4.9,3-10.09,6a158.78,158.78,0,0,1-17.52,8.74A7.49,7.49,0,0,1,5262.09,4394.88Zm-138.75-30.06a7.44,7.44,0,0,1-4.94-1.86,272.13,272.13,0,0,1-22-21.82,7.49,7.49,0,0,1,11.1-10.05,261.8,261.8,0,0,0,20.82,20.62,7.49,7.49,0,0,1-4.94,13.11Zm190.37-1a7.49,7.49,0,0,1-4.47-13.5,241.05,241.05,0,0,0,22.44-18.77,7.49,7.49,0,0,1,10.33,10.85,258.18,258.18,0,0,1-23.84,19.95A7.49,7.49,0,0,1,5313.71,4363.77Zm43.24-41.83a7.48,7.48,0,0,1-6-12,121.09,121.09,0,0,0,14.31-24.47,7.49,7.49,0,1,1,13.76,5.91,135.87,135.87,0,0,1-16.06,27.51A7.49,7.49,0,0,1,5357,4321.94Zm-274.24-1.63a7.46,7.46,0,0,1-6-3c-5.94-7.84-11.87-16.3-17.64-25.15a7.49,7.49,0,1,1,12.55-8.18c5.58,8.56,11.31,16.73,17,24.29a7.49,7.49,0,0,1-6,12Zm-33.07-50.49a7.51,7.51,0,0,1-6.51-3.77q-7.41-12.95-14.54-26.89a7.49,7.49,0,1,1,13.34-6.82q7,13.62,14.2,26.27a7.49,7.49,0,0,1-6.49,11.21Zm330.37-2.89a6.49,6.49,0,0,1-.88-.05,7.49,7.49,0,0,1-6.56-8.31,95.23,95.23,0,0,0,.66-11.2,103.26,103.26,0,0,0-1.41-16.74,7.49,7.49,0,0,1,14.77-2.44,117.47,117.47,0,0,1,1.61,19.18,109.89,109.89,0,0,1-.76,12.95A7.49,7.49,0,0,1,5380,4266.93Zm-357.91-50.87a7.49,7.49,0,0,1-6.81-4.36q-6.26-13.59-12.22-27.94a7.48,7.48,0,0,1,13.82-5.74q5.86,14.07,12,27.42a7.49,7.49,0,0,1-6.79,10.62Zm348.79-7.9a7.51,7.51,0,0,1-6.94-4.66,180.3,180.3,0,0,0-13.15-25.69,7.48,7.48,0,0,1,12.77-7.81,194.8,194.8,0,0,1,14.25,27.84,7.5,7.5,0,0,1-6.93,10.32Zm-372.08-47.85a7.47,7.47,0,0,1-7-4.83q-5.34-14-10.39-28.6a7.49,7.49,0,0,1,14.15-4.92q5,14.39,10.23,28.2a7.49,7.49,0,0,1-4.33,9.66A7.35,7.35,0,0,1,4998.81,4160.31Zm341.11-3.63a7.47,7.47,0,0,1-5.9-2.87c-5.73-7.31-12.2-14.85-19.24-22.42a7.49,7.49,0,0,1,11-10.2c7.33,7.88,14.08,15.75,20.06,23.39a7.48,7.48,0,0,1-5.89,12.1ZM5299,4112.37a7.47,7.47,0,0,1-5.15-2.05q-10.53-10-22.2-19.94a7.49,7.49,0,0,1,9.74-11.38q11.94,10.22,22.75,20.44a7.49,7.49,0,0,1-5.14,12.93Zm-320-9.14a7.48,7.48,0,0,1-7.14-5.22q-4.55-14.33-8.83-29.09a7.49,7.49,0,0,1,14.38-4.17q4.23,14.57,8.72,28.73a7.48,7.48,0,0,1-7.13,9.75ZM5253.15,4073a7.45,7.45,0,0,1-4.63-1.61q-11.55-9.09-23.86-18.17a7.49,7.49,0,0,1,8.89-12.06q12.51,9.23,24.24,18.47a7.49,7.49,0,0,1-4.64,13.37Zm-291-27.79a7.5,7.5,0,0,1-7.23-5.57q-3.87-14.54-7.48-29.43a7.49,7.49,0,0,1,14.56-3.54q3.57,14.73,7.4,29.13a7.49,7.49,0,0,1-7.25,9.41Zm242.4-8.13a7.44,7.44,0,0,1-4.27-1.35q-12.14-8.44-24.86-16.87a7.49,7.49,0,1,1,8.28-12.49q12.84,8.52,25.14,17.08a7.49,7.49,0,0,1-4.29,13.63Zm-50.36-33.39a7.41,7.41,0,0,1-4-1.17q-12.58-8-25.56-15.9a7.48,7.48,0,0,1,7.79-12.78q13.11,8,25.78,16a7.49,7.49,0,0,1-4,13.82Zm-206.28-17.21a7.49,7.49,0,0,1-7.31-5.87q-3.24-14.72-6.24-29.71A7.49,7.49,0,0,1,4949,3948q3,14.84,6.19,29.42a7.47,7.47,0,0,1-7.32,9.1Zm154.69-14.31a7.48,7.48,0,0,1-3.8-1q-12.89-7.6-26.06-15.15a7.49,7.49,0,0,1,7.45-13q13.24,7.59,26.22,15.24a7.49,7.49,0,0,1-3.81,13.94Zm-52.46-30.06a7.57,7.57,0,0,1-3.64-.94q-13.1-7.32-26.4-14.54a7.49,7.49,0,1,1,7.15-13.17q13.36,7.28,26.54,14.62a7.49,7.49,0,0,1-3.65,14ZM4936,3927.25a7.49,7.49,0,0,1-7.36-6.16q-2.67-14.85-5.09-29.92a7.49,7.49,0,1,1,14.79-2.38q2.4,14.92,5,29.65a7.48,7.48,0,0,1-6,8.69A6.81,6.81,0,0,1,4936,3927.25Zm61-14a7.52,7.52,0,0,1-3.51-.88q-13.29-7.08-26.69-14.07a7.49,7.49,0,0,1,6.93-13.28q13.45,7,26.79,14.13a7.49,7.49,0,0,1-3.52,14.1Zm-53.66-28a7.44,7.44,0,0,1-3.41-.82q-13.43-6.9-26.92-13.71a7.5,7.5,0,0,1,5.42-13.9q-1.78-12.78-3.37-25.68a7.5,7.5,0,0,1,6.52-8.35,7.4,7.4,0,0,1,8.34,6.52q1.86,15,3.95,29.82a7.45,7.45,0,0,1-1,4.87l13.88,7.1a7.49,7.49,0,0,1-3.43,14.15Zm-54-27.29a7.37,7.37,0,0,1-3.33-.79l-27-13.38a7.49,7.49,0,1,1,6.63-13.43l27,13.42a7.48,7.48,0,0,1-3.35,14.18Zm-54.16-26.7a7.43,7.43,0,0,1-3.29-.76l-27.15-13.21a7.49,7.49,0,0,1,6.52-13.48l27.21,13.24a7.48,7.48,0,0,1-3.29,14.21Zm83.84-23.57a7.48,7.48,0,0,1-7.44-6.7q-1.57-15-2.88-30.14a7.49,7.49,0,0,1,14.92-1.29q1.29,15,2.85,29.86a7.48,7.48,0,0,1-6.66,8.23A7.09,7.09,0,0,1,4919.08,3807.63Zm-138.25-2.78a7.42,7.42,0,0,1-3.25-.75L4750.35,3791a7.49,7.49,0,1,1,6.47-13.51l27.27,13.1a7.49,7.49,0,0,1-3.26,14.23Zm-54.51-26.13a7.6,7.6,0,0,1-3.23-.73l-27.28-13a7.49,7.49,0,0,1,6.47-13.52l27.28,13a7.49,7.49,0,0,1-3.24,14.25Zm-54.56-26.11a7.33,7.33,0,0,1-3.23-.74l-27.26-13.12a7.49,7.49,0,1,1,6.52-13.48l27.22,13.1a7.49,7.49,0,0,1-3.25,14.24Zm242.12-5.05a7.49,7.49,0,0,1-7.47-7q-1-15.1-1.79-30.28a7.49,7.49,0,0,1,7.11-7.85,7.39,7.39,0,0,1,7.85,7.11q.73,15,1.78,30a7.49,7.49,0,0,1-7,8Zm-296.56-21.26a7.41,7.41,0,0,1-3.27-.76q-13.95-6.81-27.19-13.37a7.49,7.49,0,1,1,6.66-13.41q13.18,6.52,27.09,13.32a7.49,7.49,0,0,1-3.29,14.22Zm293.54-39.06a7.48,7.48,0,0,1-7.47-7.25q-.49-15.16-.69-30.35a7.48,7.48,0,0,1,7.39-7.58h.1a7.5,7.5,0,0,1,7.49,7.39q.19,15,.67,30.06a7.47,7.47,0,0,1-7.24,7.72Zm-.77-60.41H4910a7.5,7.5,0,0,1-7.44-7.54q.1-15.2.49-30.37a7.5,7.5,0,0,1,7.48-7.29h.21a7.5,7.5,0,0,1,7.29,7.69q-.39,15-.49,30.07A7.49,7.49,0,0,1,4910.09,3626.83Zm1.6-60.44h-.35a7.48,7.48,0,0,1-7.14-7.82q.71-15.22,1.73-30.36a7.62,7.62,0,0,1,8-7,7.51,7.51,0,0,1,7,8q-1,15-1.72,30A7.49,7.49,0,0,1,4911.69,3566.39Zm4.11-60.34-.68,0a7.48,7.48,0,0,1-6.78-8.13q1.36-15.18,3.06-30.22a7.49,7.49,0,0,1,14.89,1.68q-1.7,14.87-3,29.88A7.5,7.5,0,0,1,4915.8,3506.05Zm6.81-60a7.23,7.23,0,0,1-1-.07,7.47,7.47,0,0,1-6.39-8.44q2.09-15.12,4.53-30.06a7.4,7.4,0,0,1,8.6-6.17,7.49,7.49,0,0,1,6.18,8.6q-2.41,14.73-4.48,29.68A7.47,7.47,0,0,1,4922.61,3446Zm9.79-59.58a8.52,8.52,0,0,1-1.42-.13,7.52,7.52,0,0,1-5.95-8.77q2.88-15,6.16-29.79a7.49,7.49,0,0,1,14.63,3.25q-3.24,14.55-6.07,29.36A7.51,7.51,0,0,1,4932.4,3386.45Zm13.09-58.95a7.4,7.4,0,0,1-1.85-.24,7.48,7.48,0,0,1-5.41-9.1q3.78-14.85,8-29.38a7.49,7.49,0,1,1,14.39,4.17q-4.12,14.28-7.86,28.91A7.49,7.49,0,0,1,4945.49,3327.5Zm16.82-58a7.35,7.35,0,0,1-2.34-.38,7.49,7.49,0,0,1-4.78-9.45q4.8-14.6,10.06-28.77a7.49,7.49,0,1,1,14,5.21q-5.18,13.91-9.87,28.24A7.49,7.49,0,0,1,4962.31,3269.5Zm21.06-56.59a7.48,7.48,0,0,1-6.91-10.38q6-14.19,12.44-27.88a7.49,7.49,0,0,1,13.53,6.41q-6.33,13.38-12.16,27.26A7.48,7.48,0,0,1,4983.37,3212.91Zm25.88-54.53a7.48,7.48,0,0,1-6.6-11q7.31-13.59,15.16-26.56a7.49,7.49,0,0,1,12.8,7.77q-7.65,12.61-14.75,25.87A7.49,7.49,0,0,1,5009.25,3158.38Z"/><path class="cls-143" d="M4563.22,3699.42a7.31,7.31,0,0,1-3.38-.81l-13.37-6.84a7.49,7.49,0,1,1,6.86-13.31l13.28,6.8a7.48,7.48,0,0,1-3.39,14.16Z"/><path class="cls-21" d="M5215.81,4404.65a117.52,117.52,0,0,1-13.53-.79,7.47,7.47,0,0,1-6.58-8.29A7.38,7.38,0,0,1,5204,4389a104,104,0,0,0,28-.6,7.49,7.49,0,0,1,2.34,14.79A118.08,118.08,0,0,1,5215.81,4404.65Zm-41.73-8a7.45,7.45,0,0,1-2.69-.5,157.76,157.76,0,0,1-28.1-14.35,7.49,7.49,0,1,1,8.07-12.62,141.7,141.7,0,0,0,25.41,13,7.49,7.49,0,0,1-2.69,14.48Zm88-1.78a7.48,7.48,0,0,1-2.91-14.38,144.87,144.87,0,0,0,15.86-7.94q5-2.87,9.73-5.78a7.48,7.48,0,0,1,7.84,12.75q-4.9,3-10.09,6a158.78,158.78,0,0,1-17.52,8.74A7.49,7.49,0,0,1,5262.09,4394.88Zm-138.75-30.06a7.44,7.44,0,0,1-4.94-1.86,272.13,272.13,0,0,1-22-21.82,7.49,7.49,0,0,1,11.1-10.05,261.8,261.8,0,0,0,20.82,20.62,7.49,7.49,0,0,1-4.94,13.11Zm190.37-1a7.49,7.49,0,0,1-4.47-13.5,241.05,241.05,0,0,0,22.44-18.77,7.49,7.49,0,0,1,10.33,10.85,258.18,258.18,0,0,1-23.84,19.95A7.49,7.49,0,0,1,5313.71,4363.77Zm43.24-41.83a7.48,7.48,0,0,1-6-12,121.09,121.09,0,0,0,14.31-24.47,7.49,7.49,0,1,1,13.76,5.91,135.87,135.87,0,0,1-16.06,27.51A7.49,7.49,0,0,1,5357,4321.94Zm-274.24-1.63a7.46,7.46,0,0,1-6-3c-5.94-7.84-11.87-16.3-17.64-25.15a7.49,7.49,0,1,1,12.55-8.18c5.58,8.56,11.31,16.73,17,24.29a7.49,7.49,0,0,1-6,12Zm-33.07-50.49a7.51,7.51,0,0,1-6.51-3.77q-7.41-12.95-14.54-26.89a7.49,7.49,0,1,1,13.34-6.82q7,13.62,14.2,26.27a7.49,7.49,0,0,1-6.49,11.21Zm330.37-2.89a6.49,6.49,0,0,1-.88-.05,7.49,7.49,0,0,1-6.56-8.31,95.23,95.23,0,0,0,.66-11.2,103.26,103.26,0,0,0-1.41-16.74,7.49,7.49,0,0,1,14.77-2.44,117.47,117.47,0,0,1,1.61,19.18,109.89,109.89,0,0,1-.76,12.95A7.49,7.49,0,0,1,5380,4266.93Zm-357.91-50.87a7.49,7.49,0,0,1-6.81-4.36q-6.26-13.59-12.22-27.94a7.48,7.48,0,0,1,13.82-5.74q5.86,14.07,12,27.42a7.49,7.49,0,0,1-6.79,10.62Zm348.79-7.9a7.51,7.51,0,0,1-6.94-4.66,180.3,180.3,0,0,0-13.15-25.69,7.48,7.48,0,0,1,12.77-7.81,194.8,194.8,0,0,1,14.25,27.84,7.5,7.5,0,0,1-6.93,10.32Zm-372.08-47.85a7.47,7.47,0,0,1-7-4.83q-5.34-14-10.39-28.6a7.49,7.49,0,0,1,14.15-4.92q5,14.39,10.23,28.2a7.49,7.49,0,0,1-4.33,9.66A7.35,7.35,0,0,1,4998.81,4160.31Zm341.11-3.63a7.47,7.47,0,0,1-5.9-2.87c-5.73-7.31-12.2-14.85-19.24-22.42a7.49,7.49,0,0,1,11-10.2c7.33,7.88,14.08,15.75,20.06,23.39a7.48,7.48,0,0,1-5.89,12.1ZM5299,4112.37a7.47,7.47,0,0,1-5.15-2.05q-10.53-10-22.2-19.94a7.49,7.49,0,0,1,9.74-11.38q11.94,10.22,22.75,20.44a7.49,7.49,0,0,1-5.14,12.93Zm-320-9.14a7.48,7.48,0,0,1-7.14-5.22q-4.55-14.33-8.83-29.09a7.49,7.49,0,0,1,14.38-4.17q4.23,14.57,8.72,28.73a7.48,7.48,0,0,1-7.13,9.75ZM5253.15,4073a7.45,7.45,0,0,1-4.63-1.61q-11.55-9.09-23.86-18.17a7.49,7.49,0,0,1,8.89-12.06q12.51,9.23,24.24,18.47a7.49,7.49,0,0,1-4.64,13.37Zm-291-27.79a7.5,7.5,0,0,1-7.23-5.57q-3.87-14.54-7.48-29.43a7.49,7.49,0,0,1,14.56-3.54q3.57,14.73,7.4,29.13a7.49,7.49,0,0,1-7.25,9.41Zm242.4-8.13a7.44,7.44,0,0,1-4.27-1.35q-12.14-8.44-24.86-16.87a7.49,7.49,0,1,1,8.28-12.49q12.84,8.52,25.14,17.08a7.49,7.49,0,0,1-4.29,13.63Zm-50.36-33.39a7.41,7.41,0,0,1-4-1.17q-12.58-8-25.56-15.9a7.48,7.48,0,0,1,7.79-12.78q13.11,8,25.78,16a7.49,7.49,0,0,1-4,13.82Zm-206.28-17.21a7.49,7.49,0,0,1-7.31-5.87q-3.24-14.72-6.24-29.71A7.49,7.49,0,0,1,4949,3948q3,14.84,6.19,29.42a7.47,7.47,0,0,1-7.32,9.1Zm154.69-14.31a7.48,7.48,0,0,1-3.8-1q-12.89-7.6-26.06-15.15a7.49,7.49,0,0,1,7.45-13q13.24,7.59,26.22,15.24a7.49,7.49,0,0,1-3.81,13.94Zm-52.46-30.06a7.57,7.57,0,0,1-3.64-.94q-13.1-7.32-26.4-14.54a7.49,7.49,0,1,1,7.15-13.17q13.36,7.28,26.54,14.62a7.49,7.49,0,0,1-3.65,14ZM4936,3927.25a7.49,7.49,0,0,1-7.36-6.16q-2.67-14.85-5.09-29.92a7.49,7.49,0,1,1,14.79-2.38q2.4,14.92,5,29.65a7.48,7.48,0,0,1-6,8.69A6.81,6.81,0,0,1,4936,3927.25Zm61-14a7.52,7.52,0,0,1-3.51-.88q-13.29-7.08-26.69-14.07a7.49,7.49,0,0,1,6.93-13.28q13.45,7,26.79,14.13a7.49,7.49,0,0,1-3.52,14.1Zm-53.66-28a7.44,7.44,0,0,1-3.41-.82q-13.43-6.9-26.92-13.71a7.5,7.5,0,0,1,5.42-13.9q-1.78-12.78-3.37-25.68a7.5,7.5,0,0,1,6.52-8.35,7.4,7.4,0,0,1,8.34,6.52q1.86,15,3.95,29.82a7.45,7.45,0,0,1-1,4.87l13.88,7.1a7.49,7.49,0,0,1-3.43,14.15Zm-54-27.29a7.37,7.37,0,0,1-3.33-.79l-27-13.38a7.49,7.49,0,1,1,6.63-13.43l27,13.42a7.48,7.48,0,0,1-3.35,14.18Zm-54.16-26.7a7.43,7.43,0,0,1-3.29-.76l-27.15-13.21a7.49,7.49,0,0,1,6.52-13.48l27.21,13.24a7.48,7.48,0,0,1-3.29,14.21Zm83.84-23.57a7.48,7.48,0,0,1-7.44-6.7q-1.57-15-2.88-30.14a7.49,7.49,0,0,1,14.92-1.29q1.29,15,2.85,29.86a7.48,7.48,0,0,1-6.66,8.23A7.09,7.09,0,0,1,4919.08,3807.63Zm-138.25-2.78a7.42,7.42,0,0,1-3.25-.75L4750.35,3791a7.49,7.49,0,1,1,6.47-13.51l27.27,13.1a7.49,7.49,0,0,1-3.26,14.23Zm-54.51-26.13a7.6,7.6,0,0,1-3.23-.73l-27.28-13a7.49,7.49,0,0,1,6.47-13.52l27.28,13a7.49,7.49,0,0,1-3.24,14.25Zm-54.56-26.11a7.33,7.33,0,0,1-3.23-.74l-27.26-13.12a7.49,7.49,0,1,1,6.52-13.48l27.22,13.1a7.49,7.49,0,0,1-3.25,14.24Zm242.12-5.05a7.49,7.49,0,0,1-7.47-7q-1-15.1-1.79-30.28a7.49,7.49,0,0,1,7.11-7.85,7.39,7.39,0,0,1,7.85,7.11q.73,15,1.78,30a7.49,7.49,0,0,1-7,8Zm-296.56-21.26a7.41,7.41,0,0,1-3.27-.76q-13.95-6.81-27.19-13.37a7.49,7.49,0,1,1,6.66-13.41q13.18,6.52,27.09,13.32a7.49,7.49,0,0,1-3.29,14.22Zm293.54-39.06a7.48,7.48,0,0,1-7.47-7.25q-.49-15.16-.69-30.35a7.48,7.48,0,0,1,7.39-7.58h.1a7.5,7.5,0,0,1,7.49,7.39q.19,15,.67,30.06a7.47,7.47,0,0,1-7.24,7.72Zm-.77-60.41H4910a7.5,7.5,0,0,1-7.44-7.54q.1-15.2.49-30.37a7.5,7.5,0,0,1,7.48-7.29h.21a7.5,7.5,0,0,1,7.29,7.69q-.39,15-.49,30.07A7.49,7.49,0,0,1,4910.09,3626.83Zm1.6-60.44h-.35a7.48,7.48,0,0,1-7.14-7.82q.71-15.22,1.73-30.36a7.62,7.62,0,0,1,8-7,7.51,7.51,0,0,1,7,8q-1,15-1.72,30A7.49,7.49,0,0,1,4911.69,3566.39Zm4.11-60.34-.68,0a7.48,7.48,0,0,1-6.78-8.13q1.36-15.18,3.06-30.22a7.49,7.49,0,0,1,14.89,1.68q-1.7,14.87-3,29.88A7.5,7.5,0,0,1,4915.8,3506.05Zm6.81-60a7.23,7.23,0,0,1-1-.07,7.47,7.47,0,0,1-6.39-8.44q2.09-15.12,4.53-30.06a7.4,7.4,0,0,1,8.6-6.17,7.49,7.49,0,0,1,6.18,8.6q-2.41,14.73-4.48,29.68A7.47,7.47,0,0,1,4922.61,3446Zm9.79-59.58a8.52,8.52,0,0,1-1.42-.13,7.52,7.52,0,0,1-5.95-8.77q2.88-15,6.16-29.79a7.49,7.49,0,0,1,14.63,3.25q-3.24,14.55-6.07,29.36A7.51,7.51,0,0,1,4932.4,3386.45Zm13.09-58.95a7.4,7.4,0,0,1-1.85-.24,7.48,7.48,0,0,1-5.41-9.1q3.78-14.85,8-29.38a7.49,7.49,0,1,1,14.39,4.17q-4.12,14.28-7.86,28.91A7.49,7.49,0,0,1,4945.49,3327.5Zm16.82-58a7.35,7.35,0,0,1-2.34-.38,7.49,7.49,0,0,1-4.78-9.45q4.8-14.6,10.06-28.77a7.49,7.49,0,1,1,14,5.21q-5.18,13.91-9.87,28.24A7.49,7.49,0,0,1,4962.31,3269.5Zm21.06-56.59a7.48,7.48,0,0,1-6.91-10.38q6-14.19,12.44-27.88a7.49,7.49,0,0,1,13.53,6.41q-6.33,13.38-12.16,27.26A7.48,7.48,0,0,1,4983.37,3212.91Zm25.88-54.53a7.48,7.48,0,0,1-6.6-11q7.31-13.59,15.16-26.56a7.49,7.49,0,0,1,12.8,7.77q-7.65,12.61-14.75,25.87A7.49,7.49,0,0,1,5009.25,3158.38Z"/></g></g></g></svg>