<?xml version="1.0" standalone="no"?>
<!DOCTYPE svg PUBLIC "-//W3C//DTD SVG 20010904//EN"
 "http://www.w3.org/TR/2001/REC-SVG-20010904/DTD/svg10.dtd">
<svg version="1.0" xmlns="http://www.w3.org/2000/svg"
 width="520.000000pt" height="520.000000pt" viewBox="0 0 520.000000 520.000000"
 preserveAspectRatio="xMidYMid meet">
<metadata>
Created by potrace 1.14, written by Peter Selinger 2001-2017
</metadata>
<g transform="translate(0.000000,520.000000) scale(0.100000,-0.100000)"
fill="#000000" stroke="none">
<path d="M3670 4041 c0 -8 -30 -30 -115 -83 -11 -7 -42 -29 -68 -48 -27 -19
-50 -34 -53 -32 -2 1 -13 -7 -25 -19 -11 -11 -27 -18 -34 -15 -9 3 -12 0 -8
-10 3 -8 -1 -14 -10 -14 -8 0 -20 -7 -27 -15 -7 -8 -16 -13 -20 -10 -4 3 -11
-2 -14 -11 -4 -9 -13 -14 -22 -10 -8 3 -12 2 -9 -4 3 -5 -5 -15 -19 -22 -14
-6 -26 -15 -26 -20 0 -4 -7 -8 -15 -8 -8 0 -15 -5 -15 -11 0 -5 -4 -8 -9 -5
-5 4 -11 3 -13 -2 -1 -4 -37 -30 -78 -57 -41 -28 -78 -54 -81 -59 -4 -5 -14
-6 -22 -3 -12 4 -14 2 -10 -10 5 -13 2 -15 -11 -10 -9 4 -15 3 -12 -1 5 -9
-126 -102 -143 -102 -6 0 -11 -3 -11 -7 0 -5 -21 -21 -48 -38 -26 -16 -56 -37
-66 -47 -11 -10 -28 -20 -38 -24 -10 -3 -18 -10 -18 -15 0 -5 -6 -9 -13 -9 -7
0 -23 -9 -34 -20 -12 -11 -27 -21 -34 -22 -12 -3 -59 -42 -59 -49 0 -3 37 -4
83 -4 45 0 90 -3 100 -8 9 -4 17 -4 17 0 0 5 40 8 89 8 82 0 88 -1 87 -20 -1
-11 -8 -19 -15 -17 -7 1 -10 -2 -6 -7 3 -6 -21 -63 -54 -128 -33 -65 -65 -129
-71 -143 -20 -47 -37 -70 -44 -63 -4 4 -4 -1 0 -10 4 -12 0 -23 -12 -33 -11
-9 -12 -12 -4 -8 13 6 13 5 -1 -12 -16 -20 -81 -149 -79 -159 0 -3 -6 -13 -15
-21 -8 -9 -13 -20 -10 -25 4 -5 1 -9 -4 -9 -6 0 -11 -7 -11 -15 0 -8 -5 -15
-10 -15 -6 0 -9 -3 -8 -7 3 -12 -53 -127 -65 -135 -7 -4 -7 -8 -2 -8 6 0 -1
-10 -15 -21 -14 -11 -19 -17 -11 -13 11 5 13 3 8 -10 -4 -10 -7 -22 -7 -28 0
-6 -7 -7 -16 -4 -9 3 -12 2 -9 -5 4 -5 1 -17 -7 -26 -7 -9 -12 -18 -11 -19 4
-9 -10 -44 -18 -44 -5 0 -8 -3 -7 -7 3 -16 -25 -62 -34 -56 -6 3 -2 -6 7 -21
9 -14 15 -32 12 -41 -4 -8 -1 -17 5 -21 7 -4 8 -3 4 4 -4 7 -5 12 -3 12 10 0
67 -131 62 -141 -4 -5 -1 -8 7 -7 8 2 13 -6 12 -19 0 -12 3 -20 7 -18 11 7 61
-103 53 -116 -4 -8 -3 -9 4 -5 7 4 28 -29 57 -86 25 -51 50 -100 55 -108 4 -8
16 -33 26 -55 11 -22 23 -43 27 -46 5 -3 8 -9 8 -13 -1 -3 10 -28 23 -55 14
-27 23 -51 20 -54 -3 -2 2 -7 10 -10 11 -5 39 42 113 191 54 108 101 199 106
200 4 2 7 10 7 17 0 8 7 21 16 29 8 9 13 16 10 16 -3 0 10 30 29 67 19 37 35
73 35 80 0 7 4 13 8 13 5 0 19 25 31 55 14 32 27 52 34 48 6 -3 7 -1 3 5 -7
11 11 51 29 64 6 4 7 8 3 8 -5 0 13 39 38 88 25 48 49 86 53 85 5 -1 7 9 5 22
-1 14 1 25 5 25 7 0 33 48 33 60 0 3 6 12 13 20 7 8 14 19 14 23 0 8 93 199
101 207 7 7 38 64 39 72 4 23 14 37 24 31 6 -3 7 -1 3 6 -4 6 0 23 8 36 9 14
13 25 9 25 -3 0 4 12 18 27 13 14 17 22 9 18 -13 -8 -13 -7 0 11 8 10 20 22
25 26 6 4 7 8 2 8 -4 0 0 14 8 30 9 17 20 28 25 25 6 -3 7 1 4 9 -3 8 8 40 25
71 17 31 31 63 31 71 0 8 5 12 10 9 6 -3 10 3 10 14 0 11 7 26 15 35 8 8 15
19 15 23 0 13 94 12 102 -1 6 -8 8 -8 8 0 0 7 46 11 140 10 77 0 142 2 144 5
6 5 -96 213 -106 217 -5 2 -8 9 -8 16 0 6 -42 96 -94 199 -51 103 -91 187 -87
187 3 0 1 4 -4 8 -6 4 -19 25 -29 47 -10 22 -23 47 -27 55 -5 8 -15 30 -23 48
-14 30 -36 44 -36 23z"/>
<path d="M3856 3922 c-3 -5 1 -9 9 -9 8 0 12 4 9 9 -3 4 -7 8 -9 8 -2 0 -6 -4
-9 -8z"/>
<path d="M2555 3189 c-4 -6 -5 -12 -2 -15 2 -3 7 2 10 11 7 17 1 20 -8 4z"/>
<path d="M2596 3162 c-3 -5 1 -9 9 -9 8 0 12 4 9 9 -3 4 -7 8 -9 8 -2 0 -6 -4
-9 -8z"/>
<path d="M3626 3042 c-3 -5 1 -9 9 -9 8 0 12 4 9 9 -3 4 -7 8 -9 8 -2 0 -6 -4
-9 -8z"/>
<path d="M2473 2995 c0 -8 4 -12 9 -9 4 3 8 9 8 15 0 5 -4 9 -8 9 -5 0 -9 -7
-9 -15z"/>
<path d="M2069 2883 c-13 -16 -12 -17 4 -4 16 13 21 21 13 21 -2 0 -10 -8 -17
-17z"/>
<path d="M2550 2846 c0 -2 7 -7 16 -10 8 -3 12 -2 9 4 -6 10 -25 14 -25 6z"/>
<path d="M1593 2707 c-9 -16 -64 -17 -75 -2 -5 7 -8 7 -8 0 0 -6 -30 -10 -70
-10 -38 0 -70 4 -70 9 0 5 -6 4 -12 -1 -7 -5 -61 -9 -120 -8 -59 1 -112 -1
-119 -5 -8 -6 4 -39 42 -116 30 -60 57 -110 62 -112 4 -2 7 -9 7 -15 0 -13 96
-205 112 -224 5 -7 7 -17 3 -23 -3 -5 -2 -10 3 -10 9 0 49 -81 44 -89 -2 -2 0
-7 5 -10 11 -8 94 -173 92 -185 0 -5 3 -12 8 -15 10 -7 44 -77 43 -87 -1 -4 2
-10 7 -13 12 -8 54 -91 47 -91 -3 0 2 -7 11 -16 9 -9 13 -24 10 -32 -3 -9 -3
-13 1 -9 7 7 187 -345 184 -359 -1 -4 2 -10 7 -13 4 -3 18 -27 31 -53 13 -26
28 -50 33 -54 13 -8 348 -9 356 -1 3 3 16 2 29 -3 15 -6 26 -6 30 1 4 6 11 6
20 -2 11 -9 14 -9 14 0 0 8 5 9 19 2 10 -6 21 -8 24 -5 3 3 71 6 151 6 l146 1
-2 23 c-1 13 -5 24 -8 24 -7 0 -42 76 -40 86 1 4 -2 10 -7 13 -11 8 -88 164
-85 174 1 4 -3 7 -10 7 -6 0 -9 3 -5 6 3 4 -1 13 -9 21 -8 8 -12 19 -9 24 4 5
1 9 -4 9 -12 0 -15 26 -3 33 4 2 1 2 -6 1 -12 -3 -37 41 -34 59 1 4 -3 7 -8 7
-6 0 -10 7 -10 16 0 14 2 15 18 3 15 -13 16 -12 4 3 -8 10 -19 16 -25 15 -7
-1 -11 4 -10 11 2 6 -2 12 -7 12 -6 0 -10 9 -10 20 0 11 -5 20 -11 20 -8 0 -7
5 1 15 7 9 10 18 6 22 -3 3 -6 1 -6 -5 0 -7 -5 -12 -11 -12 -5 0 -7 5 -4 10 3
6 1 10 -4 10 -6 0 -11 7 -11 16 0 10 5 14 16 10 9 -3 12 -2 9 5 -4 6 -13 8
-20 5 -19 -7 -27 5 -13 21 9 11 7 12 -7 7 -13 -5 -16 -4 -11 4 4 7 2 12 -3 12
-6 0 -11 9 -11 20 0 11 -5 20 -11 20 -6 0 -9 9 -6 20 3 11 1 17 -4 14 -15 -9
-23 27 -8 38 11 8 10 9 -3 4 -13 -4 -22 3 -33 24 -18 35 -19 54 -2 44 6 -4 9
-4 5 1 -4 4 -2 15 4 24 9 11 6 10 -9 -2 -22 -19 -41 -8 -27 15 4 6 3 8 -3 5
-12 -8 -76 129 -68 144 4 5 3 8 -2 7 -4 -2 -9 1 -10 5 -1 4 -9 15 -18 23 -8 9
-13 19 -10 24 3 5 1 10 -4 12 -5 1 -11 10 -13 18 -2 8 -9 21 -16 28 -7 8 -10
18 -7 23 4 5 1 9 -6 9 -6 0 -9 8 -6 20 3 11 1 18 -3 15 -13 -8 -32 33 -24 48
4 6 4 9 -1 5 -4 -4 -32 40 -61 99 -30 59 -59 110 -66 115 -7 5 -23 7 -35 5
-13 -2 -23 1 -23 7 0 8 -2 8 -8 0 -9 -13 -64 -13 -74 1 -5 7 -8 6 -8 -1 0 -13
-70 -13 -70 1 0 7 -3 7 -8 0 -11 -15 -73 -13 -67 3 6 16 -2 16 -12 -1z"/>
<path d="M2555 2649 c-4 -6 -5 -12 -2 -15 2 -3 7 2 10 11 7 17 1 20 -8 4z"/>
<path d="M2396 2638 c3 -5 10 -6 15 -3 13 9 11 12 -6 12 -8 0 -12 -4 -9 -9z"/>
<path d="M2447 2479 c7 -7 15 -10 18 -7 3 3 -2 9 -12 12 -14 6 -15 5 -6 -5z"/>
<path d="M2150 2439 c0 -5 5 -7 10 -4 6 3 10 8 10 11 0 2 -4 4 -10 4 -5 0 -10
-5 -10 -11z"/>
<path d="M2395 2441 c-3 -5 -2 -12 3 -15 5 -3 9 1 9 9 0 17 -3 19 -12 6z"/>
<path d="M2135 2391 c-3 -5 -2 -12 3 -15 5 -3 9 1 9 9 0 17 -3 19 -12 6z"/>
<path d="M2219 2388 c-5 -18 -6 -38 -1 -34 7 8 12 36 6 36 -2 0 -4 -1 -5 -2z"/>
<path d="M2259 2388 c-5 -18 -6 -38 -1 -34 7 8 12 36 6 36 -2 0 -4 -1 -5 -2z"/>
<path d="M2136 2341 c-3 -5 2 -15 12 -22 15 -12 16 -12 5 2 -7 9 -10 19 -6 22
3 4 4 7 0 7 -3 0 -8 -4 -11 -9z"/>
<path d="M2333 2335 c0 -8 4 -12 9 -9 5 3 6 10 3 15 -9 13 -12 11 -12 -6z"/>
<path d="M2360 2320 c-9 -6 -10 -10 -3 -10 6 0 15 5 18 10 8 12 4 12 -15 0z"/>
<path d="M2355 2280 c3 -5 8 -10 11 -10 2 0 4 5 4 10 0 6 -5 10 -11 10 -5 0
-7 -4 -4 -10z"/>
<path d="M2230 2196 c7 -7 13 -7 20 0 6 6 3 10 -10 10 -13 0 -16 -4 -10 -10z"/>
<path d="M2330 2041 c0 -6 4 -13 10 -16 6 -3 7 1 4 9 -7 18 -14 21 -14 7z"/>
<path d="M2320 1940 c-9 -6 -10 -10 -3 -10 6 0 15 5 18 10 8 12 4 12 -15 0z"/>
<path d="M2355 1941 c-3 -5 -2 -12 3 -15 5 -3 9 1 9 9 0 17 -3 19 -12 6z"/>
<path d="M2426 1882 c-3 -5 1 -9 9 -9 8 0 12 4 9 9 -3 4 -7 8 -9 8 -2 0 -6 -4
-9 -8z"/>
<path d="M2416 1847 c3 -10 9 -15 12 -12 3 3 0 11 -7 18 -10 9 -11 8 -5 -6z"/>
<path d="M2450 1841 c0 -6 4 -13 10 -16 6 -3 7 1 4 9 -7 18 -14 21 -14 7z"/>
<path d="M2439 1788 c-5 -16 -4 -46 2 -42 4 2 7 13 6 24 -1 17 -5 26 -8 18z"/>
<path d="M2534 1536 c1 -8 5 -18 8 -22 4 -3 5 1 4 10 -1 8 -5 18 -8 22 -4 3
-5 -1 -4 -10z"/>
<path d="M2566 1542 c-3 -5 1 -9 9 -9 8 0 12 4 9 9 -3 4 -7 8 -9 8 -2 0 -6 -4
-9 -8z"/>
<path d="M2596 1493 c-6 -14 -5 -15 5 -6 7 7 10 15 7 18 -3 3 -9 -2 -12 -12z"/>
<path d="M1670 1440 c0 -5 5 -10 11 -10 5 0 7 5 4 10 -3 6 -8 10 -11 10 -2 0
-4 -4 -4 -10z"/>
<path d="M2599 1433 c-13 -16 -12 -17 4 -4 9 7 17 15 17 17 0 8 -8 3 -21 -13z"/>
<path d="M2290 1056 c0 -2 8 -10 18 -17 15 -13 16 -12 3 4 -13 16 -21 21 -21
13z"/>
</g>
</svg>
