<svg width="96" height="64" viewBox="0 0 96 64" fill="none" xmlns="http://www.w3.org/2000/svg">
<rect opacity="0.05" width="96" height="64" rx="8" fill="black"/>
<g clip-path="url(#clip0_217_8)">
<path d="M58.8932 24.655C57.7777 24.2129 56.5985 23.991 55.4113 23.9999C51.5719 23.9999 48.8603 26.1036 48.8411 29.1235C48.8171 31.342 50.768 32.5922 52.2438 33.3335C53.7579 34.0956 54.2643 34.5759 54.2595 35.2571C54.2499 36.2933 53.05 36.7631 51.9342 36.7631C50.4008 36.7631 49.5634 36.5308 48.2748 35.9488L47.7972 35.7061L47.2525 39.1827C48.186 39.6055 49.8681 39.9683 51.6055 39.9996C55.6872 39.9996 58.3556 37.909 58.3868 34.696C58.4204 32.9237 57.3646 31.5848 55.1425 30.4781C53.7915 29.7603 52.9541 29.2801 52.9541 28.5519C52.9541 27.9072 53.6715 27.2181 55.1713 27.2181C56.1695 27.1918 57.1614 27.3955 58.0821 27.8158L58.442 27.9907L58.9868 24.6315L58.8932 24.655ZM68.8565 24.2818H65.8569C64.9235 24.2818 64.2204 24.5611 63.8124 25.5685L58.0437 39.783H62.1255L62.9414 37.4522L67.923 37.4574C68.0406 38.0029 68.4005 39.783 68.4005 39.783H72L68.8565 24.2818ZM43.3195 24.1513H47.2093L44.7761 39.6603H40.8911L43.3195 24.1461V24.1513ZM33.445 32.6993L33.8481 34.8526L37.6492 24.2818H41.7693L35.6479 39.7621H31.5373L28.1778 26.6543C28.1234 26.4382 27.9956 26.2526 27.8202 26.1349C26.6094 25.4546 25.3264 24.9383 24 24.5976L24.0528 24.2713H30.3135C31.1629 24.3079 31.8468 24.5976 32.0748 25.5842L33.4426 32.7071V32.6993H33.445ZM64.0572 34.281L65.6074 29.943C65.5882 29.99 65.9265 29.0478 66.1233 28.4657L66.3896 29.8047L67.2895 34.2784H64.0548V34.281H64.0572Z" fill="white"/>
</g>
<defs>
<clipPath id="clip0_217_8">
<rect width="48" height="48" fill="white" transform="translate(24 8)"/>
</clipPath>
</defs>
</svg>
