<svg width="116" height="84" viewBox="0 0 116 84" fill="none" xmlns="http://www.w3.org/2000/svg">
<g filter="url(#filter0_d_217_8)">
<rect opacity="0.05" x="10" y="10" width="96" height="64" rx="8" fill="black"/>
<g clip-path="url(#clip0_217_8)">
<path d="M68.8932 34.655C67.7777 34.2129 66.5985 33.991 65.4113 33.9999C61.5719 33.9999 58.8603 36.1036 58.8411 39.1235C58.8171 41.342 60.768 42.5922 62.2438 43.3335C63.7579 44.0956 64.2643 44.5759 64.2595 45.2571C64.2499 46.2933 63.05 46.7631 61.9342 46.7631C60.4008 46.7631 59.5634 46.5308 58.2748 45.9488L57.7972 45.7061L57.2525 49.1827C58.186 49.6055 59.8681 49.9683 61.6055 49.9996C65.6872 49.9996 68.3556 47.909 68.3868 44.696C68.4204 42.9237 67.3646 41.5848 65.1425 40.4781C63.7915 39.7603 62.9541 39.2801 62.9541 38.5519C62.9541 37.9072 63.6715 37.2181 65.1713 37.2181C66.1695 37.1918 67.1614 37.3955 68.0821 37.8158L68.442 37.9907L68.9867 34.6315L68.8932 34.655V34.655ZM78.8565 34.2818H75.8569C74.9235 34.2818 74.2204 34.5611 73.8124 35.5685L68.0437 49.783H72.1255L72.9414 47.4522L77.923 47.4574C78.0406 48.0029 78.4005 49.783 78.4005 49.783H82L78.8565 34.2818V34.2818ZM53.3195 34.1513H57.2093L54.7761 49.6603H50.8911L53.3195 34.1461V34.1513V34.1513ZM43.445 42.6993L43.8481 44.8526L47.6492 34.2818H51.7693L45.6479 49.7621H41.5373L38.1778 36.6543C38.1234 36.4382 37.9956 36.2526 37.8202 36.1349C36.6094 35.4546 35.3264 34.9383 34 34.5976L34.0528 34.2713H40.3135C41.1629 34.3079 41.8468 34.5976 42.0748 35.5842L43.4426 42.7071V42.6993H43.445ZM74.0572 44.281L75.6074 39.943C75.5882 39.99 75.9265 39.0478 76.1233 38.4657L76.3896 39.8047L77.2895 44.2784H74.0548V44.281H74.0572Z" fill="white"/>
</g>
</g>
<defs>
<filter id="filter0_d_217_8" x="0" y="0" width="116" height="84" filterUnits="userSpaceOnUse" color-interpolation-filters="sRGB">
<feFlood flood-opacity="0" result="BackgroundImageFix"/>
<feColorMatrix in="SourceAlpha" type="matrix" values="0 0 0 0 0 0 0 0 0 0 0 0 0 0 0 0 0 0 127 0" result="hardAlpha"/>
<feOffset/>
<feGaussianBlur stdDeviation="5"/>
<feComposite in2="hardAlpha" operator="out"/>
<feColorMatrix type="matrix" values="0 0 0 0 1 0 0 0 0 0.529412 0 0 0 0 0.164706 0 0 0 1 0"/>
<feBlend mode="normal" in2="BackgroundImageFix" result="effect1_dropShadow_217_8"/>
<feBlend mode="normal" in="SourceGraphic" in2="effect1_dropShadow_217_8" result="shape"/>
</filter>
<clipPath id="clip0_217_8">
<rect width="48" height="48" fill="white" transform="translate(34 18)"/>
</clipPath>
</defs>
</svg>
